<?xml version="1.0" encoding="utf-8"?>
<!-- Generator: Adobe Illustrator 16.2.1, SVG Export Plug-In . SVG Version: 6.00 Build 0)  -->
<!DOCTYPE svg PUBLIC "-//W3C//DTD SVG 1.1//EN" "http://www.w3.org/Graphics/SVG/1.1/DTD/svg11.dtd">
<svg version="1.1" id="Layer_1" xmlns="http://www.w3.org/2000/svg" xmlns:xlink="http://www.w3.org/1999/xlink" x="0px" y="0px"
	 width="174px" height="39.764px" viewBox="307.809 285.263 174 39.764" enable-background="new 307.809 285.263 174 39.764"
	 xml:space="preserve">
<g>
	<g>
		<path fill="#FFFFFF" d="M380.848,306.688c0-0.79,0.135-1.52,0.403-2.185c0.27-0.663,0.642-1.239,1.119-1.725
			c0.479-0.485,1.053-0.862,1.726-1.132c0.672-0.269,1.404-0.402,2.195-0.402c0.793,0,1.521,0.134,2.186,0.402
			c0.664,0.271,1.238,0.646,1.726,1.132c0.484,0.485,0.862,1.062,1.131,1.725c0.27,0.665,0.403,1.395,0.403,2.185
			c0,0.792-0.134,1.52-0.403,2.184c-0.269,0.667-0.646,1.241-1.131,1.727c-0.487,0.485-1.062,0.863-1.726,1.132
			c-0.665,0.269-1.394,0.403-2.186,0.403c-0.791,0-1.523-0.135-2.195-0.403c-0.673-0.269-1.247-0.646-1.726-1.132
			c-0.478-0.484-0.852-1.059-1.119-1.727C380.982,308.207,380.848,307.48,380.848,306.688z M382.191,306.688
			c0,0.584,0.094,1.133,0.281,1.646c0.186,0.515,0.458,0.964,0.817,1.345c0.358,0.381,0.791,0.683,1.3,0.906
			c0.508,0.225,1.074,0.338,1.704,0.338c0.625,0,1.193-0.113,1.701-0.338c0.509-0.224,0.941-0.525,1.3-0.906
			c0.36-0.382,0.631-0.83,0.818-1.345c0.187-0.516,0.279-1.063,0.279-1.646c0-0.581-0.093-1.131-0.279-1.646
			c-0.188-0.515-0.459-0.964-0.818-1.345c-0.357-0.381-0.791-0.683-1.3-0.906c-0.508-0.225-1.076-0.337-1.701-0.337
			c-0.63,0-1.196,0.112-1.704,0.337c-0.509,0.224-0.941,0.525-1.3,0.906c-0.359,0.381-0.632,0.83-0.817,1.345
			C382.285,305.557,382.191,306.107,382.191,306.688L382.191,306.688z"/>
		<path fill="#FFFFFF" d="M394.447,301.513h1.345v1.814h0.045c0.21-0.358,0.472-0.669,0.784-0.929
			c0.315-0.262,0.654-0.478,1.02-0.651c0.366-0.172,0.751-0.299,1.154-0.381s0.798-0.122,1.188-0.122
			c0.79,0,1.519,0.134,2.185,0.402c0.663,0.271,1.238,0.646,1.726,1.132c0.483,0.485,0.861,1.062,1.13,1.725
			c0.27,0.665,0.404,1.395,0.404,2.185c0,0.792-0.135,1.52-0.404,2.184c-0.269,0.667-0.646,1.241-1.13,1.727
			c-0.486,0.485-1.062,0.863-1.726,1.132c-0.665,0.269-1.395,0.403-2.185,0.403c-0.39,0-0.785-0.041-1.188-0.124
			c-0.403-0.081-0.788-0.208-1.154-0.381c-0.365-0.171-0.704-0.388-1.02-0.649c-0.313-0.261-0.574-0.571-0.784-0.929h-0.046v6.922
			h-1.344V301.513L394.447,301.513z M395.657,306.688c0,0.584,0.112,1.133,0.336,1.646c0.225,0.516,0.531,0.964,0.919,1.345
			c0.387,0.381,0.843,0.683,1.365,0.906c0.523,0.225,1.092,0.338,1.705,0.338c0.627,0,1.193-0.113,1.702-0.338
			c0.507-0.224,0.94-0.525,1.298-0.906c0.359-0.382,0.632-0.83,0.819-1.345c0.186-0.516,0.279-1.063,0.279-1.646
			c0-0.581-0.094-1.131-0.279-1.646c-0.188-0.515-0.46-0.964-0.819-1.345c-0.357-0.381-0.791-0.683-1.298-0.906
			c-0.509-0.225-1.076-0.337-1.702-0.337c-0.613,0-1.182,0.112-1.705,0.337c-0.521,0.224-0.977,0.525-1.365,0.906
			c-0.39,0.381-0.695,0.83-0.919,1.345C395.77,305.557,395.657,306.107,395.657,306.688L395.657,306.688z"/>
		<path fill="#FFFFFF" d="M417.571,309.914c-0.524,0.793-1.17,1.361-1.938,1.703c-0.77,0.344-1.618,0.517-2.545,0.517
			c-0.79,0-1.508-0.135-2.149-0.403c-0.644-0.269-1.194-0.646-1.657-1.132c-0.465-0.484-0.819-1.059-1.064-1.727
			c-0.246-0.663-0.371-1.4-0.371-2.206c0-0.776,0.128-1.495,0.381-2.15c0.255-0.657,0.612-1.229,1.077-1.714
			c0.463-0.485,1.009-0.867,1.636-1.144s1.322-0.414,2.083-0.414c0.792,0,1.49,0.138,2.096,0.414s1.111,0.643,1.522,1.099
			c0.411,0.454,0.721,0.974,0.931,1.557c0.209,0.583,0.312,1.173,0.312,1.771v0.939h-8.693c0,0.285,0.056,0.648,0.168,1.087
			c0.112,0.441,0.317,0.872,0.615,1.289c0.299,0.419,0.699,0.775,1.199,1.074c0.5,0.3,1.146,0.448,1.938,0.448
			c0.688,0,1.352-0.165,1.994-0.493c0.642-0.328,1.135-0.776,1.479-1.345L417.571,309.914L417.571,309.914z M416.539,305.813
			c0-0.463-0.094-0.895-0.279-1.298c-0.188-0.403-0.44-0.758-0.762-1.065c-0.322-0.306-0.702-0.55-1.144-0.727
			c-0.44-0.182-0.907-0.27-1.4-0.27c-0.732,0-1.34,0.149-1.826,0.446c-0.485,0.3-0.87,0.644-1.153,1.032
			c-0.282,0.389-0.485,0.765-0.604,1.132c-0.12,0.365-0.181,0.616-0.181,0.749H416.539L416.539,305.813z"/>
		<path fill="#FFFFFF" d="M420.886,304.425c0-0.194-0.008-0.429-0.022-0.706c-0.015-0.275-0.026-0.557-0.035-0.84
			c-0.007-0.283-0.018-0.549-0.031-0.795c-0.017-0.247-0.023-0.438-0.023-0.571h1.344c0.015,0.388,0.025,0.761,0.034,1.12
			c0.008,0.358,0.025,0.591,0.057,0.695h0.066c0.27-0.566,0.717-1.057,1.345-1.468c0.627-0.41,1.359-0.615,2.195-0.615
			c0.807,0,1.463,0.127,1.973,0.381c0.507,0.253,0.907,0.587,1.196,0.996c0.294,0.412,0.493,0.886,0.607,1.423
			c0.11,0.538,0.167,1.09,0.167,1.658v6.162h-1.343v-6.096c0-0.418-0.038-0.824-0.113-1.221s-0.206-0.751-0.394-1.063
			c-0.187-0.314-0.446-0.563-0.783-0.75c-0.337-0.188-0.772-0.282-1.311-0.282c-0.493,0-0.961,0.087-1.4,0.26
			c-0.441,0.171-0.822,0.432-1.145,0.783c-0.32,0.351-0.573,0.791-0.76,1.322c-0.188,0.53-0.281,1.153-0.281,1.871v5.176h-1.345
			v-7.44H420.886L420.886,304.425z"/>
		<path fill="#FFFFFF" d="M438.811,304.089c-0.522-0.731-1.226-1.098-2.104-1.098c-0.359,0-0.711,0.089-1.055,0.269
			c-0.343,0.18-0.516,0.471-0.516,0.873c0,0.328,0.142,0.568,0.426,0.719c0.284,0.147,0.643,0.276,1.075,0.38
			c0.434,0.105,0.9,0.213,1.401,0.325c0.5,0.111,0.968,0.283,1.4,0.515s0.791,0.549,1.074,0.952
			c0.285,0.403,0.428,0.956,0.428,1.658c0,0.643-0.139,1.184-0.415,1.625c-0.277,0.441-0.635,0.795-1.076,1.063
			c-0.44,0.27-0.937,0.464-1.489,0.583c-0.554,0.118-1.104,0.18-1.658,0.18c-0.837,0-1.605-0.12-2.308-0.358
			c-0.702-0.239-1.33-0.673-1.881-1.3l1.791-1.681c0.343,0.389,0.714,0.705,1.109,0.952c0.395,0.247,0.878,0.369,1.444,0.369
			c0.194,0,0.396-0.021,0.604-0.066s0.403-0.119,0.584-0.224c0.18-0.105,0.325-0.236,0.436-0.392
			c0.113-0.158,0.168-0.34,0.168-0.551c0-0.373-0.142-0.649-0.425-0.827c-0.285-0.182-0.643-0.327-1.076-0.438
			c-0.433-0.111-0.899-0.215-1.4-0.314c-0.501-0.096-0.969-0.251-1.4-0.47c-0.433-0.219-0.791-0.52-1.076-0.907
			c-0.284-0.389-0.426-0.927-0.426-1.613c0-0.597,0.124-1.116,0.371-1.558c0.244-0.438,0.569-0.802,0.973-1.087
			c0.403-0.283,0.866-0.492,1.389-0.627c0.522-0.133,1.055-0.202,1.592-0.202c0.718,0,1.426,0.124,2.13,0.37
			c0.701,0.246,1.269,0.668,1.701,1.266L438.811,304.089L438.811,304.089z"/>
		<path fill="#FFFFFF" d="M441.769,303.395v-2.286h2.22v-3.115h2.688v3.115h2.957v2.286h-2.957v4.706
			c0,0.537,0.102,0.965,0.303,1.276c0.2,0.314,0.601,0.472,1.198,0.472c0.239,0,0.5-0.025,0.784-0.078
			c0.283-0.052,0.507-0.139,0.672-0.259v2.265c-0.284,0.136-0.631,0.228-1.042,0.28s-0.772,0.079-1.087,0.079
			c-0.718,0-1.304-0.079-1.759-0.236c-0.457-0.156-0.815-0.395-1.076-0.716c-0.261-0.322-0.439-0.721-0.537-1.199
			c-0.097-0.478-0.145-1.032-0.145-1.658v-4.93h-2.219V303.395z"/>
		<path fill="#FFFFFF" d="M458.461,310.386h-0.067c-0.388,0.611-0.881,1.056-1.479,1.332c-0.599,0.277-1.255,0.415-1.973,0.415
			c-0.493,0-0.974-0.068-1.444-0.203c-0.472-0.134-0.89-0.336-1.254-0.604c-0.367-0.269-0.662-0.604-0.886-1.009
			s-0.337-0.875-0.337-1.411c0-0.583,0.104-1.08,0.313-1.49c0.209-0.411,0.489-0.755,0.841-1.031
			c0.351-0.275,0.756-0.496,1.221-0.662c0.463-0.163,0.944-0.287,1.446-0.369c0.501-0.081,1.004-0.134,1.512-0.155
			c0.508-0.023,0.986-0.035,1.434-0.035h0.672v-0.29c0-0.673-0.23-1.178-0.695-1.514c-0.463-0.337-1.053-0.504-1.77-0.504
			c-0.568,0-1.099,0.102-1.592,0.303s-0.919,0.474-1.277,0.818l-1.413-1.412c0.6-0.612,1.297-1.054,2.096-1.321
			c0.8-0.27,1.626-0.404,2.476-0.404c0.761,0,1.405,0.085,1.926,0.258c0.524,0.174,0.958,0.392,1.301,0.661
			c0.343,0.269,0.608,0.579,0.796,0.93c0.186,0.352,0.319,0.706,0.402,1.064c0.082,0.359,0.131,0.705,0.146,1.041
			c0.015,0.337,0.022,0.631,0.022,0.886v6.185h-2.42v-1.477H458.461L458.461,310.386z M458.303,307.048h-0.559
			c-0.374,0-0.792,0.015-1.256,0.045c-0.463,0.028-0.899,0.101-1.31,0.21c-0.411,0.113-0.759,0.278-1.042,0.493
			c-0.285,0.217-0.428,0.52-0.428,0.909c0,0.254,0.058,0.466,0.169,0.639c0.112,0.172,0.257,0.316,0.437,0.437
			c0.179,0.117,0.381,0.204,0.604,0.257c0.226,0.052,0.449,0.078,0.672,0.078c0.927,0,1.61-0.219,2.052-0.66
			c0.439-0.44,0.658-1.043,0.658-1.805v-0.603H458.303z"/>
		<path fill="#FFFFFF" d="M466.55,306.084l-3.72-4.976h3.271l2.149,3.228l2.331-3.228h3.068l-3.673,4.976l4.324,5.78h-3.271
			l-2.8-3.854l-2.824,3.854h-3.181L466.55,306.084z"/>
	</g>
	<path fill="#FFFFFF" d="M476.469,301.588h-0.949v-0.479h2.377v0.479h-0.947v2.526h-0.481L476.469,301.588L476.469,301.588z
		 M478.505,301.108h0.767l0.896,2.284l0.899-2.284h0.742v3.006h-0.48v-2.524h-0.013l-0.994,2.524h-0.327l-0.993-2.524h-0.015v2.524
		h-0.48L478.505,301.108L478.505,301.108L478.505,301.108z"/>
</g>
<g>
	<path fill="#FFFFFF" d="M371.136,294.019c-0.053,1.142-1.021,2.026-2.166,1.971l-48.314-2.294c-1.14-0.057-2.02-1.027-1.966-2.169
		l0.203-4.29c0.051-1.145,1.024-2.026,2.162-1.972l48.314,2.295c1.142,0.057,2.024,1.026,1.972,2.17L371.136,294.019z"/>
	<path fill="#FFFFFF" d="M355.259,309.719c0,0.689-0.557,1.244-1.244,1.244H314.72c-0.684,0-1.241-0.555-1.241-1.244v-6.143
		c0-0.684,0.558-1.239,1.241-1.239h39.295c0.688,0,1.244,0.556,1.244,1.239V309.719z"/>
	<path fill="#FFFFFF" d="M367.343,316.365c0.022,0.684-0.496,1.259-1.163,1.281l-44.333,1.383c-0.661,0.02-1.218-0.522-1.239-1.206
		l-0.114-3.648c-0.023-0.687,0.5-1.258,1.166-1.281l44.332-1.382c0.663-0.023,1.219,0.519,1.239,1.203L367.343,316.365z"/>
	<path fill="#FFFFFF" d="M361.388,323.782c0,0.687-0.523,1.244-1.167,1.244h-42.319c-0.643,0-1.166-0.559-1.166-1.244v-2.438
		c0-0.684,0.523-1.241,1.166-1.241h42.319c0.644,0,1.166,0.559,1.166,1.241L361.388,323.782z"/>
	<path fill="#FFFFFF" d="M362.479,299.378c0,0.504-0.754,0.917-1.678,0.917h-51.318c-0.923,0-1.675-0.413-1.675-0.917v-1.989
		c0-0.505,0.752-0.916,1.675-0.916h51.318c0.924,0,1.678,0.411,1.678,0.916V299.378L362.479,299.378z"/>
</g>
</svg>
