<svg id="Layer_1" data-name="Layer 1" xmlns="http://www.w3.org/2000/svg" viewBox="0 0 688.33 110.44"><defs><style>.cls-1{fill:#5f6062;}.cls-2{fill:#79b142;}.cls-3{fill:#f5d019;}.cls-4{fill:#232e66;}.cls-5{fill:#f47642;}.cls-6{fill:#f47641;}</style></defs><title>openstax-tutor-beta-logo-2-ex</title><path class="cls-1" d="M217.94,44.51A14.6,14.6,0,0,1,233,59.58c0,8.72-6.17,15.08-15.08,15.08a14.6,14.6,0,0,1-15.07-15.08C203,50.86,209.22,44.51,217.94,44.51Zm0,26.7c6.9,0,11.26-5.27,11.26-11.62S224.85,48,217.94,48s-11.26,5.27-11.26,11.63S211,71.2,217.94,71.2Z"/><path class="cls-1" d="M240.46,45.23h3.63v5.09h.18c2.36-4,7.26-5.81,11.44-5.81a14.6,14.6,0,0,1,15.07,15.08c0,8.72-6.17,15.08-15.07,15.08-4.36,0-9.08-1.82-11.44-5.82h-.18V87.91h-3.63V45.23Zm15.26,26c6.9,0,11.26-5.27,11.26-11.62S262.62,48,255.72,48a11.63,11.63,0,1,0,0,23.25Z"/><path class="cls-1" d="M304.39,68.48c-2.91,4.36-7.26,6.18-12.35,6.18-8.72,0-14.53-6.18-14.53-15.08,0-8.54,6-14.89,14.35-14.89,8.72,0,13.44,6.72,13.44,13.44v2.54h-24c0,3.09,2.18,10.71,10.9,10.71,3.81,0,7.81-2,9.62-5.08ZM301.49,57a9.55,9.55,0,0,0-9.81-9.26c-8.17,0-10.35,7.81-10.35,9.26Z"/><path class="cls-1" d="M313.47,53.22c0-2.18-.36-6.54-.36-8h3.63c0,2.18.18,4.54.18,5.09h.18a10.77,10.77,0,0,1,9.81-5.81c8.9,0,10.9,6,10.9,12.35V73.93h-3.63V57c0-4.72-1.27-9.08-7.26-9.08-5.45,0-9.81,3.81-9.81,11.63V73.93h-3.63V53.22Z"/><path class="cls-1" d="M363.06,52.31a6.77,6.77,0,0,0-5.81-3.09c-2,0-4.36.91-4.36,3.09,0,5.27,16,.91,16,12.53,0,7.08-6.72,9.44-12.71,9.44-4.54,0-8.53-1.09-11.62-4.54L349.44,65c2,2.18,3.81,3.63,7.08,3.63,2.18,0,4.9-1.09,4.9-3.45,0-6.17-16-1.27-16-12.53,0-6.54,6-9.63,12-9.63,4,0,8.17,1.27,10.54,4.54Z"/><path class="cls-1" d="M371.23,50.32V44h6.17V35.43h7.45V44H393v6.36h-8.17V63.4c0,2.91.91,4.9,4.18,4.9a7.24,7.24,0,0,0,4-.91v6.17a16.21,16.21,0,0,1-5.81.91c-7.81,0-9.62-3.45-9.62-10.54V50.32h-6.36Z"/><path class="cls-1" d="M417.18,69.75H417a11,11,0,0,1-9.44,4.91c-5.45,0-10.9-3.09-10.9-8.9,0-9.63,11.26-10.35,18.71-10.35h1.82v-.73c0-3.63-2.91-5.63-6.72-5.63a12.1,12.1,0,0,0-8,3.09l-3.81-3.81a17.7,17.7,0,0,1,12.53-4.72c12.71,0,12.71,9.08,12.71,13.44V74.11h-6.72V69.75Zm-.36-9.26h-1.63c-4,0-11.08.36-11.08,4.54,0,2.72,2.72,3.81,5.27,3.81,5.08,0,7.45-2.73,7.45-6.72V60.49Z"/><path class="cls-1" d="M439.52,57.76,429.17,44h9.08l6,8.9L450.6,44h8.54L449,57.76l12,16h-9.08L444.06,63l-7.81,10.72h-8.72Z"/><path class="cls-2" d="M175.81,24.34a5.82,5.82,0,0,1-6,5.45l-134-6.36a5.82,5.82,0,0,1-5.45-6l.55-12a5.82,5.82,0,0,1,6-5.45l134,6.36a5.82,5.82,0,0,1,5.45,6Z"/><path class="cls-1" d="M131.67,67.94a3.34,3.34,0,0,1-3.45,3.45H19.07a3.45,3.45,0,0,1-3.45-3.45V50.86a3.45,3.45,0,0,1,3.45-3.45H128.22a3.45,3.45,0,0,1,3.45,3.45Z"/><path class="cls-3" d="M165.27,86.46A3.72,3.72,0,0,1,162,90.09L39,93.9a3.41,3.41,0,0,1-3.45-3.27l-.37-10.17a3.72,3.72,0,0,1,3.27-3.64l123-3.81a3.42,3.42,0,0,1,3.45,3.27Z"/><path class="cls-4" d="M148.75,107a3.41,3.41,0,0,1-3.27,3.45H28A3.3,3.3,0,0,1,24.7,107v-6.72A3.42,3.42,0,0,1,28,96.81H145.48a3.42,3.42,0,0,1,3.27,3.45Z"/><path class="cls-5" d="M151.83,39.24c0,1.45-2,2.54-4.72,2.54H4.72C2.18,41.78,0,40.69,0,39.24V33.79c0-1.45,2-2.54,4.72-2.54H147.11c2.54,0,4.72,1.09,4.72,2.54v5.45Z"/><path class="cls-6" d="M505.26,47.23h-9.81V73.56H492V47.23H482.2V44h23.07v3.27Z"/><path class="cls-6" d="M533.23,62.3a18.29,18.29,0,0,1-.55,4.54,9.54,9.54,0,0,1-2,3.81,10.48,10.48,0,0,1-3.45,2.73,11.44,11.44,0,0,1-5.27.9,14.51,14.51,0,0,1-5.27-.9,8.58,8.58,0,0,1-3.45-2.73,15.31,15.31,0,0,1-2-3.81,18.29,18.29,0,0,1-.54-4.54V44h3.45v17.8a19.84,19.84,0,0,0,.37,3.45,7.08,7.08,0,0,0,1.27,2.91,5,5,0,0,0,2.36,2,9.42,9.42,0,0,0,7.27,0,8.49,8.49,0,0,0,2.36-2,8.31,8.31,0,0,0,1.27-2.91,22.24,22.24,0,0,0,.36-3.45V44h3.45V62.3Z"/><path class="cls-6" d="M561.75,47.23h-9.81V73.56h-3.45V47.23h-9.8V44h23.07v3.27Z"/><path class="cls-6" d="M581.18,74.47A17,17,0,0,1,575,73.38a15,15,0,0,1-8.17-8.18A17.68,17.68,0,0,1,565.74,59a17,17,0,0,1,1.09-6.17A11.68,11.68,0,0,1,570.1,48,14.55,14.55,0,0,1,575,44.68a18,18,0,0,1,12.35,0,15,15,0,0,1,8.17,8.17A17.66,17.66,0,0,1,596.62,59a16.93,16.93,0,0,1-1.09,6.17,11.65,11.65,0,0,1-3.27,4.9,14.57,14.57,0,0,1-4.9,3.27A16.34,16.34,0,0,1,581.18,74.47Zm0-3.27a12.87,12.87,0,0,0,4.72-.91,9.15,9.15,0,0,0,3.63-2.72,9.79,9.79,0,0,0,2.36-4,12.76,12.76,0,0,0,0-9.44,17.82,17.82,0,0,0-2.36-4,9.15,9.15,0,0,0-3.63-2.72,10.45,10.45,0,0,0-4.72-.91,13.62,13.62,0,0,0-4.72.91,9.16,9.16,0,0,0-3.63,2.72,9.77,9.77,0,0,0-2.36,4,12.73,12.73,0,0,0,0,9.44,17.84,17.84,0,0,0,2.36,4,13.6,13.6,0,0,0,3.63,2.72A13.63,13.63,0,0,0,581.18,71.2Z"/><path class="cls-6" d="M603.88,44h7.63a30.41,30.41,0,0,1,4.17.18,11.72,11.72,0,0,1,3.81,1.09,8.55,8.55,0,0,1,2.72,2.36A7.75,7.75,0,0,1,623.32,52a7.25,7.25,0,0,1-2,5.27,9.57,9.57,0,0,1-5.45,2.54l8.35,13.63h-4.36l-8-13.26h-4.54V73.38h-3.45V44h0ZM607.33,57h6.17a7.54,7.54,0,0,0,2.91-.55,4.24,4.24,0,0,0,3.09-4.36,4.8,4.8,0,0,0-.54-2.54,3.21,3.21,0,0,0-1.63-1.46,9,9,0,0,0-2.36-.73,11.87,11.87,0,0,0-2.54-.18h-4.9V57Z"/><path class="cls-6" d="M678.89,45.23h-1.63V44.5h4.18v.91H679.8V50h-.91Zm3.63-.72h1.27l1.64,4,1.63-4h1.27v5.27h-.91V45.23h0l-1.82,4.54h-.55l-1.82-4.54h0v4.54h-.91V44.51Z"/><path class="cls-6" d="M633.49,43.78h2L634.4,51.4h0a5.11,5.11,0,0,1,3.81-1.81c3.27,0,4.91,2.36,4.54,5.45a6,6,0,0,1-6,5.45,3.29,3.29,0,0,1-3.27-1.82h0l-.18,1.45h-2ZM640.75,55c.36-2.18-.73-3.63-2.91-3.63a4,4,0,0,0-4,3.63c-.36,2.18.73,3.63,2.91,3.63A4,4,0,0,0,640.75,55Z"/><path class="cls-6" d="M646.74,55.77a2.86,2.86,0,0,0,3.09,3.09,3.8,3.8,0,0,0,3.09-1.64l1.27,1.09a6.23,6.23,0,0,1-4.9,2.18c-3.27,0-4.9-2.36-4.54-5.45a6.26,6.26,0,0,1,6.17-5.45c3.63,0,4.72,2.72,4.36,5.45v.73Zm6.36-1.46c.18-1.63-.55-3.08-2.54-3.08a3.73,3.73,0,0,0-3.63,3.08Z"/><path class="cls-6" d="M663.45,51.59h-2.72L660,56.31c-.18,1.09-.36,2.36,1.09,2.36a2,2,0,0,0,1.45-.36l-.18,1.81a7.91,7.91,0,0,1-1.82.37c-3.09,0-2.72-1.82-2.54-3.45l.73-5.45h-2.18l.18-1.63h2.18l.36-2.91h2L660.91,50h2.72Z"/><path class="cls-6" d="M666,51.23a6.64,6.64,0,0,1,4.36-1.46c3.09,0,4.18,1.63,3.81,3.45l-.73,5.27a6.82,6.82,0,0,0-.18,1.82h-1.82a5,5,0,0,1,.18-1.63h0a4.8,4.8,0,0,1-3.81,1.82c-2,0-3.45-1.09-3.09-3.09.36-2.72,3.09-3.63,6.17-3.63h1.45V53.4c.18-1.09-.54-2.18-2.18-2.18a4.83,4.83,0,0,0-3.09,1.09Zm5.08,4.18c-1.82,0-4.18.36-4.36,2-.18,1.09.55,1.63,2,1.63a3.4,3.4,0,0,0,3.45-3.09v-.73h-1.09v.18Z"/></svg>