<?xml version="1.0" encoding="utf-8"?>
<!-- Generator: Adobe Illustrator 16.2.1, SVG Export Plug-In . SVG Version: 6.00 Build 0)  -->
<!DOCTYPE svg PUBLIC "-//W3C//DTD SVG 1.1//EN" "http://www.w3.org/Graphics/SVG/1.1/DTD/svg11.dtd">
<svg version="1.1" id="Layer_1" xmlns="http://www.w3.org/2000/svg" xmlns:xlink="http://www.w3.org/1999/xlink" x="0px" y="0px"
	 width="252.01px" height="49.516px" viewBox="5 0 252.01 49.516" enable-background="new 5 0 252.01 49.516" xml:space="preserve">
<g>
	<g>
		<path fill="#5E5F61" d="M103.417,24.971c0-1.261,0.212-2.421,0.638-3.482c0.426-1.057,1.018-1.974,1.774-2.747
			c0.757-0.774,1.667-1.376,2.733-1.805c1.064-0.428,2.222-0.643,3.477-0.643c1.253,0,2.407,0.214,3.459,0.643
			c1.052,0.429,1.963,1.03,2.733,1.805c0.768,0.773,1.366,1.689,1.791,2.747c0.427,1.061,0.64,2.221,0.64,3.482
			c0,1.263-0.212,2.425-0.64,3.483c-0.425,1.062-1.023,1.975-1.791,2.748c-0.77,0.775-1.681,1.375-2.733,1.803
			s-2.206,0.643-3.459,0.643c-1.255,0-2.413-0.215-3.477-0.643c-1.066-0.428-1.976-1.027-2.733-1.803
			c-0.757-0.773-1.348-1.686-1.774-2.748C103.629,27.396,103.417,26.234,103.417,24.971z M105.545,24.971
			c0,0.931,0.149,1.806,0.444,2.624c0.296,0.824,0.728,1.535,1.295,2.145c0.567,0.605,1.253,1.088,2.057,1.445
			c0.805,0.357,1.705,0.535,2.698,0.535c0.994,0,1.892-0.178,2.696-0.535c0.805-0.357,1.491-0.84,2.058-1.445
			c0.569-0.609,1-1.32,1.296-2.145c0.296-0.818,0.443-1.693,0.443-2.624c0-0.928-0.147-1.802-0.443-2.625
			c-0.297-0.817-0.727-1.533-1.296-2.141c-0.566-0.606-1.253-1.087-2.058-1.445c-0.804-0.358-1.703-0.536-2.696-0.536
			c-0.993,0-1.893,0.178-2.698,0.536c-0.804,0.358-1.49,0.838-2.057,1.445c-0.568,0.608-1,1.324-1.295,2.141
			C105.694,23.169,105.545,24.043,105.545,24.971z"/>
		<path fill="#5E5F61" d="M124.957,16.724h2.128v2.892h0.07c0.332-0.572,0.746-1.065,1.242-1.481
			c0.498-0.417,1.035-0.762,1.616-1.037c0.579-0.273,1.188-0.476,1.826-0.606c0.64-0.132,1.266-0.197,1.883-0.197
			c1.251,0,2.406,0.214,3.458,0.643c1.051,0.429,1.963,1.03,2.733,1.805c0.768,0.773,1.366,1.689,1.791,2.747
			c0.426,1.061,0.64,2.221,0.64,3.482c0,1.263-0.214,2.425-0.64,3.483c-0.425,1.062-1.023,1.975-1.791,2.748
			c-0.77,0.775-1.682,1.375-2.733,1.803c-1.053,0.428-2.208,0.643-3.458,0.643c-0.617,0-1.243-0.066-1.883-0.197
			c-0.638-0.131-1.248-0.332-1.826-0.605c-0.581-0.273-1.118-0.621-1.616-1.033c-0.496-0.416-0.91-0.914-1.242-1.482h-0.07v11.029
			h-2.128V16.724z M126.871,24.971c0,0.931,0.179,1.806,0.534,2.624c0.353,0.824,0.838,1.535,1.454,2.145
			c0.613,0.605,1.335,1.088,2.163,1.445c0.829,0.357,1.728,0.535,2.699,0.535c0.991,0,1.891-0.178,2.697-0.535
			c0.802-0.357,1.489-0.84,2.056-1.445c0.569-0.609,0.999-1.32,1.296-2.145c0.295-0.818,0.444-1.693,0.444-2.624
			c0-0.928-0.149-1.802-0.444-2.625c-0.297-0.817-0.727-1.533-1.296-2.141c-0.567-0.606-1.253-1.087-2.056-1.445
			c-0.806-0.358-1.706-0.536-2.697-0.536c-0.972,0-1.87,0.178-2.699,0.536c-0.828,0.358-1.55,0.838-2.163,1.445
			c-0.616,0.608-1.102,1.324-1.454,2.141C127.05,23.169,126.871,24.043,126.871,24.971z"/>
		<path fill="#5E5F61" d="M161.576,30.113c-0.829,1.264-1.852,2.168-3.07,2.717c-1.218,0.545-2.561,0.818-4.027,0.818
			c-1.254,0-2.391-0.215-3.407-0.643c-1.017-0.428-1.892-1.027-2.625-1.803c-0.734-0.773-1.297-1.686-1.686-2.748
			c-0.39-1.059-0.586-2.232-0.586-3.521c0-1.236,0.202-2.379,0.603-3.425c0.404-1.048,0.971-1.958,1.705-2.732
			c0.732-0.772,1.597-1.379,2.59-1.819c0.994-0.44,2.094-0.662,3.3-0.662c1.254,0,2.359,0.221,3.318,0.662
			c0.957,0.44,1.761,1.023,2.413,1.749c0.65,0.726,1.142,1.552,1.473,2.483c0.331,0.928,0.496,1.869,0.496,2.822v1.497h-13.768
			c0,0.453,0.087,1.031,0.265,1.732s0.503,1.389,0.977,2.055c0.473,0.666,1.105,1.236,1.898,1.711
			c0.792,0.477,1.816,0.715,3.069,0.715c1.089,0,2.141-0.262,3.158-0.785c1.018-0.523,1.799-1.236,2.343-2.143L161.576,30.113z
			 M159.943,23.578c0-0.738-0.149-1.429-0.444-2.069c-0.296-0.643-0.696-1.208-1.207-1.697c-0.509-0.488-1.111-0.875-1.809-1.16
			c-0.699-0.286-1.438-0.429-2.218-0.429c-1.16,0-2.125,0.238-2.893,0.713c-0.769,0.477-1.377,1.024-1.827,1.643
			c-0.449,0.619-0.77,1.222-0.958,1.802c-0.189,0.584-0.283,0.984-0.283,1.196H159.943z"/>
		<path fill="#5E5F61" d="M166.829,21.365c0-0.309-0.013-0.682-0.038-1.126c-0.023-0.439-0.042-0.884-0.053-1.336
			c-0.012-0.453-0.028-0.875-0.054-1.269c-0.024-0.393-0.034-0.696-0.034-0.91h2.127c0.024,0.619,0.042,1.213,0.054,1.785
			c0.012,0.572,0.042,0.94,0.089,1.106h0.105c0.428-0.904,1.137-1.684,2.13-2.338c0.994-0.655,2.153-0.983,3.479-0.983
			c1.277,0,2.318,0.204,3.124,0.606c0.803,0.405,1.437,0.935,1.898,1.59c0.461,0.654,0.78,1.411,0.956,2.268
			c0.177,0.856,0.266,1.736,0.266,2.64v9.817h-2.127v-9.709c0-0.667-0.06-1.315-0.179-1.945c-0.119-0.63-0.325-1.195-0.622-1.695
			c-0.295-0.5-0.709-0.899-1.24-1.196c-0.532-0.297-1.225-0.446-2.076-0.446c-0.781,0-1.521,0.137-2.218,0.411
			c-0.698,0.274-1.302,0.689-1.81,1.25c-0.508,0.559-0.911,1.261-1.207,2.106c-0.297,0.846-0.444,1.837-0.444,2.98v8.245h-2.127
			V21.365z"/>
		<path fill="#5E5F61" d="M195.213,20.83c-0.826-1.166-1.938-1.749-3.334-1.749c-0.566,0-1.126,0.142-1.666,0.428
			c-0.545,0.285-0.818,0.748-0.818,1.392c0,0.521,0.226,0.906,0.676,1.143c0.447,0.237,1.016,0.44,1.701,0.607
			c0.688,0.166,1.427,0.339,2.219,0.518c0.793,0.179,1.533,0.451,2.219,0.822c0.686,0.367,1.254,0.873,1.704,1.517
			c0.449,0.643,0.673,1.523,0.673,2.643c0,1.023-0.22,1.887-0.655,2.588c-0.44,0.703-1.007,1.268-1.706,1.695
			c-0.697,0.43-1.483,0.74-2.359,0.93c-0.873,0.191-1.749,0.285-2.624,0.285c-1.326,0-2.544-0.191-3.655-0.57
			c-1.111-0.381-2.105-1.072-2.981-2.072l2.839-2.678c0.545,0.621,1.131,1.125,1.757,1.518s1.389,0.588,2.29,0.588
			c0.305,0,0.626-0.033,0.957-0.104c0.331-0.072,0.636-0.193,0.923-0.359c0.283-0.166,0.514-0.373,0.691-0.625
			c0.177-0.248,0.266-0.537,0.266-0.873c0-0.596-0.226-1.037-0.674-1.32c-0.449-0.289-1.016-0.521-1.703-0.697
			c-0.686-0.178-1.425-0.348-2.217-0.502c-0.795-0.15-1.533-0.402-2.221-0.749c-0.684-0.344-1.252-0.828-1.702-1.445
			c-0.449-0.619-0.671-1.477-0.671-2.57c0-0.953,0.193-1.78,0.582-2.483c0.391-0.702,0.905-1.278,1.545-1.731
			c0.638-0.452,1.371-0.786,2.201-1c0.826-0.214,1.666-0.322,2.516-0.322c1.14,0,2.263,0.197,3.374,0.589
			c1.111,0.395,2.011,1.065,2.696,2.018L195.213,20.83z"/>
		<path fill="#5E5F61" d="M199.897,19.722V16.08h3.515v-4.961h4.257v4.961h4.683v3.642h-4.683v7.5c0,0.857,0.16,1.535,0.481,2.033
			c0.315,0.502,0.949,0.75,1.896,0.75c0.379,0,0.793-0.041,1.244-0.123c0.448-0.084,0.805-0.223,1.062-0.412v3.607
			c-0.447,0.213-0.998,0.361-1.647,0.443c-0.652,0.086-1.225,0.127-1.722,0.127c-1.135,0-2.064-0.127-2.785-0.373
			c-0.724-0.25-1.292-0.631-1.704-1.145c-0.414-0.51-0.697-1.148-0.852-1.912c-0.154-0.76-0.229-1.641-0.229-2.641v-7.855H199.897z"
			/>
		<path fill="#5E5F61" d="M226.334,30.865h-0.105c-0.618,0.975-1.398,1.682-2.341,2.123c-0.949,0.441-1.987,0.66-3.126,0.66
			c-0.779,0-1.542-0.105-2.286-0.324c-0.745-0.211-1.409-0.533-1.987-0.961c-0.58-0.426-1.046-0.963-1.402-1.607
			c-0.354-0.643-0.533-1.391-0.533-2.246c0-0.932,0.169-1.723,0.497-2.377c0.331-0.652,0.774-1.202,1.334-1.642
			c0.55-0.441,1.196-0.792,1.931-1.056c0.731-0.26,1.496-0.455,2.286-0.588c0.795-0.129,1.595-0.214,2.397-0.248
			c0.804-0.037,1.561-0.055,2.27-0.055h1.066V22.08c0-1.071-0.366-1.875-1.1-2.411c-0.735-0.536-1.668-0.804-2.803-0.804
			c-0.899,0-1.741,0.162-2.521,0.484c-0.78,0.32-1.454,0.754-2.021,1.302l-2.238-2.25c0.947-0.975,2.055-1.677,3.318-2.106
			c1.266-0.428,2.573-0.643,3.92-0.643c1.207,0,2.225,0.138,3.051,0.411c0.832,0.274,1.516,0.626,2.061,1.053
			c0.543,0.428,0.965,0.923,1.26,1.481c0.295,0.56,0.507,1.125,0.638,1.697c0.131,0.57,0.21,1.124,0.231,1.66
			c0.024,0.534,0.034,1.006,0.034,1.411v9.85h-3.831V30.865z M226.086,25.544H225.2c-0.594,0-1.254,0.025-1.988,0.07
			c-0.735,0.049-1.427,0.162-2.076,0.338c-0.651,0.18-1.2,0.443-1.65,0.789c-0.449,0.346-0.674,0.826-0.674,1.445
			c0,0.404,0.088,0.742,0.266,1.016c0.179,0.273,0.408,0.508,0.691,0.697c0.285,0.189,0.604,0.326,0.961,0.412
			c0.353,0.082,0.709,0.121,1.062,0.121c1.467,0,2.552-0.348,3.249-1.051c0.697-0.701,1.046-1.664,1.046-2.877V25.544z"/>
		<path fill="#5E5F61" d="M239.145,24.01l-5.892-7.93h5.181l3.405,5.144l3.69-5.144h4.863l-5.82,7.93l6.849,9.206h-5.181
			l-4.435-6.137l-4.472,6.137h-5.039L239.145,24.01z"/>
	</g>
</g>
<g>
	<path fill="#78B043" d="M82.239,10.92c-0.065,1.422-1.245,2.523-2.642,2.453l-58.93-2.855c-1.391-0.072-2.464-1.281-2.397-2.699
		l0.25-5.341c0.061-1.424,1.247-2.521,2.637-2.454l58.929,2.856c1.392,0.07,2.469,1.277,2.404,2.7L82.239,10.92z"/>
	<path fill="#5E5F61" d="M62.874,30.462c0,0.86-0.68,1.55-1.517,1.55H13.429c-0.835,0-1.514-0.689-1.514-1.55v-7.646
		c0-0.853,0.679-1.542,1.514-1.542h47.928c0.837,0,1.517,0.69,1.517,1.542V30.462z"/>
	<path fill="#F4CF18" d="M77.61,38.736c0.026,0.852-0.606,1.567-1.416,1.594l-54.073,1.722c-0.807,0.024-1.486-0.65-1.512-1.5
		l-0.141-4.543c-0.027-0.854,0.611-1.566,1.421-1.594l54.072-1.719c0.81-0.027,1.487,0.646,1.512,1.496L77.61,38.736z"/>
	<path fill="#232E66" d="M70.35,47.967c0,0.854-0.639,1.549-1.423,1.549H17.309c-0.783,0-1.42-0.694-1.42-1.549v-3.034
		c0-0.852,0.637-1.546,1.42-1.546h51.618c0.784,0,1.423,0.694,1.423,1.546V47.967z"/>
	<path fill="#F37842" d="M71.68,17.589c0,0.628-0.918,1.143-2.044,1.143H7.042C5.915,18.732,5,18.217,5,17.589v-2.475
		c0-0.63,0.915-1.141,2.042-1.141h62.594c1.126,0,2.044,0.511,2.044,1.141V17.589z"/>
</g>
<g>
	<path fill="#5F6163" d="M253.125,16.315h-0.691v-0.35h1.73v0.35h-0.689v1.838h-0.35V16.315z M254.607,15.965h0.557l0.652,1.662
		l0.652-1.662h0.541v2.188h-0.35v-1.837h-0.01l-0.725,1.837h-0.236l-0.725-1.837h-0.01v1.837h-0.35v-2.188H254.607z"/>
</g>
</svg>
