<?xml version="1.0" encoding="UTF-8" standalone="no"?><!DOCTYPE svg PUBLIC "-//W3C//DTD SVG 1.1//EN" "http://www.w3.org/Graphics/SVG/1.1/DTD/svg11.dtd"><svg width="100%" height="100%" viewBox="0 0 351 61" version="1.1" xmlns="http://www.w3.org/2000/svg" xmlns:xlink="http://www.w3.org/1999/xlink" xml:space="preserve" style="fill-rule:evenodd;clip-rule:evenodd;stroke-linejoin:round;stroke-miterlimit:1.41421;"><g><path d="M119.992,39.402c3.849,0 6.233,-2.894 6.233,-6.437c0,-3.541 -2.384,-6.437 -6.233,-6.437c-3.848,0 -6.232,2.896 -6.232,6.437c0,3.543 2.384,6.437 6.232,6.437ZM119.992,24.69c4.837,0 8.276,3.474 8.276,8.275c0,4.804 -3.439,8.277 -8.276,8.277c-4.836,0 -8.276,-3.473 -8.276,-8.277c0,-4.801 3.44,-8.275 8.276,-8.275Z" style="fill:#5e6062;fill-rule:nonzero;"/><path d="M140.802,39.402c3.848,0 6.232,-2.894 6.232,-6.437c0,-3.541 -2.384,-6.437 -6.232,-6.437c-3.713,0 -6.574,2.896 -6.574,6.437c0,3.543 2.861,6.437 6.574,6.437ZM132.389,25.1l2.044,0l0,2.757l0.068,0c1.26,-2.179 3.951,-3.167 6.301,-3.167c4.835,0 8.275,3.474 8.275,8.275c0,4.804 -3.44,8.277 -8.275,8.277c-2.35,0 -5.041,-0.988 -6.301,-3.168l-0.068,0l0,10.525l-2.044,0l0,-23.499Z" style="fill:#5e6062;fill-rule:nonzero;"/><path d="M165.97,31.638c0,-2.794 -2.418,-5.11 -5.448,-5.11c-4.462,0 -5.723,4.292 -5.723,5.11l11.171,0ZM167.537,37.871c-1.601,2.383 -4.019,3.371 -6.812,3.371c-4.801,0 -7.969,-3.439 -7.969,-8.31c0,-4.701 3.27,-8.242 7.867,-8.242c4.836,0 7.391,3.712 7.391,7.357l0,1.43l-13.215,0c0,1.703 1.193,5.925 5.96,5.925c2.077,0 4.257,-1.09 5.279,-2.793l1.499,1.262Z" style="fill:#5e6062;fill-rule:nonzero;"/><path d="M172.579,29.526c0,-1.159 -0.172,-3.61 -0.172,-4.426l2.044,0c0.034,1.156 0.068,2.451 0.135,2.757l0.103,0c0.817,-1.737 2.827,-3.167 5.382,-3.167c4.904,0 5.993,3.337 5.993,6.778l0,9.365l-2.043,0l0,-9.263c0,-2.554 -0.716,-5.042 -3.95,-5.042c-3.032,0 -5.45,2.113 -5.45,6.437l0,7.868l-2.042,0l0,-11.307Z" style="fill:#5e6062;fill-rule:nonzero;"/><path d="M199.825,29.016c-0.784,-1.09 -1.805,-1.669 -3.202,-1.669c-1.089,0 -2.384,0.51 -2.384,1.737c0,2.928 8.821,0.545 8.821,6.913c0,3.883 -3.712,5.245 -7.05,5.245c-2.52,0 -4.7,-0.647 -6.368,-2.52l2.724,-2.554c1.056,1.156 2.146,2.009 3.882,2.009c1.193,0 2.725,-0.579 2.725,-1.873c0,-3.372 -8.82,-0.715 -8.82,-6.949c0,-3.644 3.269,-5.279 6.572,-5.279c2.18,0 4.496,0.683 5.824,2.486l-2.724,2.454Z" style="fill:#5e6062;fill-rule:nonzero;"/><path d="M204.32,27.959l0,-3.475l3.372,0l0,-4.732l4.087,0l0,4.732l4.495,0l0,3.475l-4.495,0l0,7.152c0,1.635 0.477,2.658 2.282,2.658c0.715,0 1.703,-0.136 2.213,-0.512l0,3.44c-0.851,0.409 -2.281,0.545 -3.236,0.545c-4.325,0 -5.346,-1.941 -5.346,-5.789l0,-7.494l-3.372,0Z" style="fill:#5e6062;fill-rule:nonzero;"/><path d="M229.454,33.512l-0.852,0c-2.247,0 -6.129,0.17 -6.129,2.519c0,1.498 1.532,2.146 2.861,2.146c2.791,0 4.12,-1.465 4.12,-3.747l0,-0.918ZM229.694,38.586l-0.104,0c-1.158,1.839 -3.064,2.656 -5.244,2.656c-3.031,0 -5.961,-1.67 -5.961,-4.904c0,-5.313 6.199,-5.689 10.286,-5.689l1.023,0l0,-0.442c0,-2.01 -1.569,-3.064 -3.747,-3.064c-1.703,0 -3.27,0.68 -4.36,1.701l-2.145,-2.144c1.804,-1.839 4.359,-2.624 6.947,-2.624c6.982,0 6.982,5.041 6.982,7.358l0,9.399l-3.677,0l0,-2.247Z" style="fill:#5e6062;fill-rule:nonzero;"/><path d="M241.988,32.047l-5.654,-7.563l4.972,0l3.27,4.907l3.542,-4.907l4.666,0l-5.585,7.563l6.573,8.786l-4.973,0l-4.258,-5.858l-4.291,5.858l-4.836,0l6.574,-8.786Z" style="fill:#5e6062;fill-rule:nonzero;"/><path d="M96.774,13.645c-0.083,1.745 -1.564,3.094 -3.31,3.008l-73.834,-3.503c-1.744,-0.087 -3.089,-1.568 -3.008,-3.312l0.313,-6.553c0.081,-1.745 1.563,-3.092 3.308,-3.01l73.833,3.507c1.744,0.084 3.092,1.566 3.01,3.31l-0.312,6.553Z" style="fill:#77af42;fill-rule:nonzero;"/><path d="M72.507,37.625c0,1.052 -0.85,1.899 -1.897,1.899l-60.05,0c-1.05,0 -1.898,-0.847 -1.898,-1.899l0,-9.381c0,-1.049 0.848,-1.899 1.898,-1.899l60.05,0c1.047,0 1.897,0.85 1.897,1.899l0,9.381Z" style="fill:#5e6062;fill-rule:nonzero;"/><path d="M90.978,47.773c0.031,1.049 -0.762,1.924 -1.779,1.957l-67.748,2.113c-1.014,0.03 -1.864,-0.795 -1.896,-1.841l-0.175,-5.574c-0.033,-1.047 0.763,-1.924 1.779,-1.954l67.749,-2.113c1.015,-0.033 1.863,0.792 1.896,1.838l0.174,5.574Z" style="fill:#f4d01a;fill-rule:nonzero;"/><path d="M81.876,59.104c0,1.047 -0.798,1.896 -1.784,1.896l-64.669,0c-0.986,0 -1.784,-0.849 -1.784,-1.896l0,-3.724c0,-1.045 0.798,-1.896 1.784,-1.896l64.669,0c0.986,0 1.784,0.851 1.784,1.896l0,3.724Z" style="fill:#222e66;fill-rule:nonzero;"/><path d="M83.54,21.827c0,0.773 -1.146,1.4 -2.559,1.4l-78.423,0c-1.413,0 -2.558,-0.627 -2.558,-1.4l0,-3.036c0,-0.774 1.145,-1.402 2.558,-1.402l78.423,0c1.413,0 2.559,0.628 2.559,1.402l0,3.036Z" style="fill:#f47641;fill-rule:nonzero;"/><path d="M347.131,24.341l0.746,0l0.871,2.221l0.877,-2.221l0.721,0l0,2.922l-0.469,0l0,-2.456l-0.014,0l-0.963,2.456l-0.32,0l-0.965,-2.456l-0.015,0l0,2.456l-0.469,0l0,-2.922ZM345.154,24.807l-0.924,0l0,-0.466l2.315,0l0,0.466l-0.924,0l0,2.456l-0.467,0l0,-2.456Z" style="fill:#f47641;fill-rule:nonzero;"/><path d="M278.176,26.257l-5.393,0l0,14.522l-1.936,0l0,-14.522l-5.394,0l0,-1.797l12.723,0l0,1.797Z" style="fill:#f47641;fill-rule:nonzero;"/><path d="M293.526,34.556c0,0.891 -0.111,1.737 -0.333,2.534c-0.224,0.801 -0.577,1.503 -1.061,2.11c-0.484,0.607 -1.118,1.09 -1.901,1.451c-0.784,0.361 -1.737,0.542 -2.858,0.542c-1.122,0 -2.075,-0.181 -2.859,-0.542c-0.784,-0.361 -1.417,-0.844 -1.901,-1.451c-0.484,-0.607 -0.837,-1.309 -1.061,-2.11c-0.222,-0.797 -0.334,-1.643 -0.334,-2.534l0,-10.096l1.936,0l0,9.819c0,0.662 0.07,1.299 0.208,1.913c0.139,0.614 0.368,1.16 0.692,1.637c0.323,0.476 0.752,0.856 1.29,1.14c0.537,0.284 1.213,0.426 2.029,0.426c0.813,0 1.489,-0.142 2.028,-0.426c0.537,-0.284 0.967,-0.664 1.29,-1.14c0.323,-0.477 0.553,-1.023 0.692,-1.637c0.138,-0.614 0.208,-1.251 0.208,-1.913l0,-9.819l1.935,0l0,10.096Z" style="fill:#f47641;fill-rule:nonzero;"/><path d="M309.291,26.257l-5.393,0l0,14.522l-1.936,0l0,-14.522l-5.393,0l0,-1.797l12.722,0l0,1.797Z" style="fill:#f47641;fill-rule:nonzero;"/><path d="M319.985,39.395c0.953,0 1.824,-0.176 2.616,-0.529c0.791,-0.354 1.472,-0.838 2.04,-1.452c0.568,-0.615 1.01,-1.333 1.325,-2.155c0.314,-0.823 0.472,-1.702 0.472,-2.64c0,-0.936 -0.158,-1.816 -0.472,-2.639c-0.315,-0.821 -0.757,-1.54 -1.325,-2.154c-0.568,-0.614 -1.249,-1.1 -2.04,-1.453c-0.792,-0.352 -1.663,-0.53 -2.616,-0.53c-0.953,0 -1.824,0.178 -2.616,0.53c-0.791,0.353 -1.472,0.839 -2.04,1.453c-0.568,0.614 -1.011,1.333 -1.326,2.154c-0.315,0.823 -0.472,1.703 -0.472,2.639c0,0.938 0.157,1.817 0.472,2.64c0.315,0.822 0.758,1.54 1.326,2.155c0.568,0.614 1.249,1.098 2.04,1.452c0.792,0.353 1.663,0.529 2.616,0.529ZM319.985,41.193c-1.244,0 -2.385,-0.215 -3.422,-0.645c-1.037,-0.429 -1.937,-1.025 -2.697,-1.786c-0.761,-0.76 -1.353,-1.667 -1.776,-2.719c-0.421,-1.054 -0.633,-2.194 -0.633,-3.424c0,-1.229 0.212,-2.37 0.633,-3.422c0.423,-1.053 1.015,-1.959 1.776,-2.721c0.76,-0.76 1.66,-1.355 2.697,-1.785c1.037,-0.431 2.178,-0.645 3.422,-0.645c1.244,0 2.385,0.214 3.422,0.645c1.037,0.43 1.937,1.025 2.697,1.785c0.761,0.762 1.352,1.668 1.775,2.721c0.422,1.052 0.634,2.193 0.634,3.422c0,1.23 -0.212,2.37 -0.634,3.424c-0.423,1.052 -1.014,1.959 -1.775,2.719c-0.76,0.761 -1.66,1.357 -2.697,1.786c-1.037,0.43 -2.178,0.645 -3.422,0.645Z" style="fill:#f47641;fill-rule:nonzero;"/><path d="M334.391,31.652l1.728,0c0.538,0 1.095,-0.015 1.672,-0.046c0.575,-0.031 1.105,-0.13 1.59,-0.3c0.484,-0.169 0.883,-0.434 1.198,-0.795c0.314,-0.361 0.472,-0.88 0.472,-1.556c0,-0.583 -0.115,-1.052 -0.346,-1.406c-0.229,-0.354 -0.534,-0.626 -0.91,-0.818c-0.377,-0.192 -0.799,-0.32 -1.268,-0.38c-0.469,-0.062 -0.941,-0.094 -1.417,-0.094l-2.719,0l0,5.395ZM332.454,24.46l4.172,0c0.784,0 1.564,0.047 2.339,0.139c0.776,0.092 1.471,0.291 2.086,0.599c0.614,0.308 1.114,0.758 1.499,1.348c0.383,0.592 0.576,1.395 0.576,2.409c0,1.198 -0.361,2.167 -1.083,2.904c-0.722,0.738 -1.721,1.207 -2.996,1.405l4.632,7.515l-2.375,0l-4.425,-7.33l-2.488,0l0,7.33l-1.937,0l0,-16.319Z" style="fill:#f47641;fill-rule:nonzero;"/></g></svg>