<?xml version="1.0" encoding="utf-8"?>
<!-- Generator: Adobe Illustrator 16.2.1, SVG Export Plug-In . SVG Version: 6.00 Build 0)  -->
<!DOCTYPE svg PUBLIC "-//W3C//DTD SVG 1.1//EN" "http://www.w3.org/Graphics/SVG/1.1/DTD/svg11.dtd">
<svg version="1.1" id="Layer_1" xmlns="http://www.w3.org/2000/svg" xmlns:xlink="http://www.w3.org/1999/xlink" x="0px" y="0px"
	 width="350.094px" height="49.516px" viewBox="0 0 350.094 49.516" enable-background="new 0 0 350.094 49.516"
	 xml:space="preserve">
<g>
	<polygon fill="#565C5E" points="65.572,39.419 76.053,16.559 0.116,14.189 0.318,14.967 	"/>
	<polygon fill="#F2CD30" points="73.504,35.898 0.266,14.761 0.411,15.321 67.095,49.516 	"/>
	<polygon fill="#20366A" points="36.932,26.424 0.271,14.789 0.434,15.443 33.462,34.238 	"/>
	<polygon fill="#73B452" points="70.518,0 0,13.747 0.116,14.189 76.053,16.559 	"/>
	<polygon fill="#F47643" points="86.657,48.316 78.56,24.062 0.167,14.383 0.328,15 	"/>
</g>
<g>
	<path fill="#5F6163" d="M346.208,16.613h-0.69v-0.35h1.73v0.35h-0.69v1.837h-0.35V16.613z M347.69,16.263h0.558l0.652,1.662
		l0.653-1.662h0.541v2.188h-0.351v-1.837h-0.01l-0.723,1.837h-0.238l-0.723-1.837h-0.011v1.837h-0.35V16.263z"/>
</g>
<g>
	<path fill="#565C5E" d="M112.046,16.342c5.042,0,8.63,3.622,8.63,8.629c0,5.007-3.589,8.63-8.63,8.63
		c-5.043,0-8.629-3.623-8.629-8.63C103.417,19.963,107.003,16.342,112.046,16.342z M112.046,31.683c4.012,0,6.5-3.019,6.5-6.712
		c0-3.694-2.488-6.711-6.5-6.711c-4.013,0-6.498,3.017-6.498,6.711C105.548,28.664,108.033,31.683,112.046,31.683z"/>
	<path fill="#565C5E" d="M124.966,16.768h2.133v2.877h0.071c1.314-2.273,4.118-3.303,6.569-3.303c5.044,0,8.629,3.622,8.629,8.629
		c0,5.007-3.585,8.63-8.629,8.63c-2.451,0-5.255-1.03-6.569-3.304h-0.071V41.27h-2.133V16.768z M133.739,31.683
		c4.014,0,6.499-3.019,6.499-6.712c0-3.694-2.485-6.711-6.499-6.711c-3.87,0-6.853,3.017-6.853,6.711
		C126.886,28.664,129.869,31.683,133.739,31.683z"/>
	<path fill="#565C5E" d="M161.609,30.085c-1.669,2.485-4.19,3.516-7.101,3.516c-5.007,0-8.312-3.587-8.312-8.665
		c0-4.902,3.412-8.594,8.204-8.594c5.043,0,7.707,3.87,7.707,7.671v1.49h-13.78c0,1.776,1.245,6.18,6.214,6.18
		c2.167,0,4.441-1.136,5.506-2.912L161.609,30.085z M159.976,23.586c0-2.912-2.521-5.327-5.682-5.327
		c-4.653,0-5.967,4.473-5.967,5.327H159.976z"/>
	<path fill="#565C5E" d="M166.861,21.384c0-1.207-0.177-3.765-0.177-4.616h2.13c0.037,1.208,0.07,2.558,0.141,2.877h0.107
		c0.852-1.811,2.946-3.303,5.612-3.303c5.113,0,6.249,3.48,6.249,7.067v9.765h-2.131v-9.66c0-2.662-0.747-5.254-4.118-5.254
		c-3.162,0-5.683,2.201-5.683,6.711v8.203h-2.131V21.384z"/>
	<path fill="#565C5E" d="M195.265,20.852c-0.815-1.137-1.88-1.741-3.338-1.741c-1.137,0-2.484,0.534-2.484,1.811
		c0,3.054,9.197,0.568,9.197,7.209c0,4.049-3.87,5.47-7.351,5.47c-2.63,0-4.901-0.676-6.641-2.628l2.84-2.664
		c1.101,1.207,2.238,2.096,4.047,2.096c1.245,0,2.844-0.604,2.844-1.953c0-3.515-9.198-0.746-9.198-7.244
		c0-3.8,3.408-5.504,6.854-5.504c2.273,0,4.688,0.708,6.073,2.592L195.265,20.852z"/>
	<path fill="#565C5E" d="M199.95,19.75v-3.621h3.515v-4.936h4.262v4.936h4.689v3.621h-4.689v7.459c0,1.703,0.497,2.769,2.381,2.769
		c0.746,0,1.776-0.142,2.309-0.533v3.588c-0.89,0.426-2.382,0.568-3.376,0.568c-4.508,0-5.575-2.025-5.575-6.038V19.75H199.95z"/>
	<path fill="#565C5E" d="M226.403,30.83h-0.106c-1.207,1.916-3.197,2.771-5.469,2.771c-3.161,0-6.214-1.741-6.214-5.114
		c0-5.541,6.462-5.93,10.723-5.93h1.066v-0.462c0-2.095-1.635-3.196-3.906-3.196c-1.776,0-3.408,0.71-4.545,1.777l-2.238-2.238
		c1.883-1.918,4.546-2.734,7.245-2.734c7.281,0,7.281,5.255,7.281,7.669v9.802h-3.837V30.83z M226.156,25.539h-0.89
		c-2.345,0-6.393,0.178-6.393,2.627c0,1.562,1.6,2.238,2.984,2.238c2.91,0,4.298-1.526,4.298-3.906V25.539z"/>
	<path fill="#565C5E" d="M239.217,24.013l-5.896-7.884h5.185l3.411,5.112l3.692-5.112h4.863l-5.822,7.884l6.853,9.161h-5.185
		l-4.438-6.107l-4.475,6.107h-5.041L239.217,24.013z"/>
</g>
<g>
	<polygon fill="#565C5E" points="264.138,16.136 264.138,18.012 269.768,18.012 269.768,33.167 271.79,33.167 271.79,18.012 
		277.417,18.012 277.417,16.136 	"/>
	<g>
		<path fill="#565C5E" d="M294.039,26.671c0,3.705-1.733,6.93-6.425,6.93c-4.69,0-6.424-3.225-6.424-6.93V16.135h2.022v10.248
			c0,2.743,1.011,5.341,4.401,5.341c3.392,0,4.402-2.598,4.402-5.341V16.135h2.022V26.671z"/>
	</g>
	<polygon fill="#565C5E" points="297.248,16.136 297.248,18.012 302.875,18.012 302.875,33.167 304.896,33.167 304.896,18.012 
		310.526,18.012 310.526,16.136 	"/>
	<g>
		<path fill="#565C5E" d="M327.694,24.651c0-3.924-2.742-7.074-6.733-7.074c-3.996,0-6.738,3.15-6.738,7.074
			c0,3.921,2.742,7.072,6.738,7.072C324.952,31.724,327.694,28.572,327.694,24.651 M312.055,24.651c0-5.146,3.732-8.951,8.905-8.951
			s8.898,3.804,8.898,8.951c0,5.148-3.726,8.949-8.898,8.949S312.055,29.8,312.055,24.651"/>
		<path fill="#565C5E" d="M336.033,23.643h1.804c2.236,0,5.147,0,5.147-2.817c0-2.453-2.142-2.813-4.114-2.813h-2.837V23.643z
			 M334.014,16.135h4.35c3.298,0,6.785,0.479,6.785,4.69c0,2.479-1.611,4.09-4.26,4.499l4.841,7.843h-2.48l-4.62-7.648h-2.597v7.648
			h-2.019V16.135z"/>
	</g>
</g>
</svg>
