<svg xmlns="http://www.w3.org/2000/svg" xmlns:xlink="http://www.w3.org/1999/xlink" viewBox="0 0 1440 720"><defs><style>.cls-1{fill:none;}.cls-2{clip-path:url(#clip-path);}.cls-3{fill:url(#linear-gradient);}.cls-4{fill:#007297;}.cls-5{fill:#0c5886;}.cls-6{fill:#0d4877;}</style><clipPath id="clip-path"><rect class="cls-1" width="1440" height="720"/></clipPath><linearGradient id="linear-gradient" x1="720" y1="720" x2="720" gradientUnits="userSpaceOnUse"><stop offset="0" stop-color="#cebd65"/><stop offset="0.07" stop-color="#b0bd78"/><stop offset="0.18" stop-color="#85be92"/><stop offset="0.29" stop-color="#60bfa9"/><stop offset="0.41" stop-color="#42bfbc"/><stop offset="0.53" stop-color="#2ac0ca"/><stop offset="0.66" stop-color="#1ac0d4"/><stop offset="0.81" stop-color="#10c0da"/><stop offset="1" stop-color="#0dc0dc"/></linearGradient></defs><title>tutor.openstax.org background</title><g id="screen"><g class="cls-2"><rect class="cls-3" width="1440" height="720"/><path class="cls-4" d="M526.44,595.36a.28.28,0,0,0,0-.19l-.59-.91c0-.28,0-.56,0-.83v-.3c0-1.43-.06-2.88-.14-4.28,0-.59-.06-1.17-.08-1.76-.15-3.57-.37-7.46-.72-12.26a.55.55,0,0,0-.18-.37.86.86,0,0,0-.33-.3,3.38,3.38,0,0,1-.87-.81l-.3-.34c-.52-.55-1.1-1.06-1.64-1.54s-.94-.79-1.42-1.18c-.76-.62-1.54-1.26-2.25-1.94-1-1-2.23-2.17-3.35-3.41a3,3,0,0,0-.61-.49l-.25-.17a2.38,2.38,0,0,1-.41-.45,3.88,3.88,0,0,0-.36-.42,3.73,3.73,0,0,0-.68-.48l.19-.64a1.26,1.26,0,0,0-.07-.4L510,558.72a.28.28,0,0,0-.39-.06l-.07,0h-.08a.28.28,0,0,0-.3.26l-.21,2.75-18.29-3.56a.28.28,0,0,0-.19,0l-12.95-11.5-.07-.06a.27.27,0,0,0-.18,0l-39.64-4.32a.28.28,0,0,0-.31.25v.06l-51.86,13.59a.28.28,0,0,0-.19.16l-9.19.85-.08,0-.08,0-16,7.82-.1,0a.28.28,0,0,0-.32.22l-.13.06a1.27,1.27,0,0,0-.23.24l-12.43,31a.28.28,0,0,0,.16.36l.17.07,4.89,18.64a.28.28,0,0,0,.34.2l.35-.09a.28.28,0,0,0,.2-.34l-.11-.43,3.08-20.56,6.41,15.21L360.82,615l-5.48,9a1.27,1.27,0,0,0-.05.37l7.79,28-1,1.49a.28.28,0,0,0-.17.26l-.1.15a.28.28,0,0,0,.08.39l.26.17.4,1.11a.28.28,0,0,0,.36.17l.09,0a.28.28,0,0,0,.29.25l2.75-.1,2.12,4.33a1.2,1.2,0,0,0,.43.26l8.94-.34,4.87.46a.27.27,0,0,0,.2-.06.28.28,0,0,0,.1-.19l0-.37a.28.28,0,0,0-.06-.2l0,0,.16-6.22,0,0a.28.28,0,0,0,.11-.38l-.15-.28a.3.3,0,0,0-.07-.13l-9.95-18.52.66-8.85,10.29-21.5,17.06,10.73.09,0,.1,0,15.62,2.1-6.51,15.64a.28.28,0,0,0,0,.23h0a.28.28,0,0,0,0,.21l6.1,8.56L413,649.94a.28.28,0,0,0,.16.36l0,0v0a.28.28,0,0,0,.34.2l1.74-.47.2,2.57-1.64,1.59-.09,0-.34.13a.28.28,0,0,0-.16.36l1.4,3.64v.16a.28.28,0,0,0,.23.3l.05,0a.28.28,0,0,0,.22,0h0l9.67.89h0a4.32,4.32,0,0,1,.43-.37.28.28,0,0,0,0-.21l-2.28-8.59,3.07-10.31.5-.2h0a.29.29,0,0,0,.21,0A.28.28,0,0,0,427,640l.08-.12a.35.35,0,0,0,.11-.15v-.05l14-22,8.12,5.33.05,18.22a.28.28,0,0,0,.08.2l.07,0a.28.28,0,0,0,.2.2l12.78,3.2,3.22,7.85v.14a.28.28,0,0,0,.31.24l3.61-.45,1.28,3.55a.28.28,0,0,0,0,.12l0,.37a.28.28,0,0,0,.3.26l9.46-.72a.28.28,0,0,0,.19-.1l0,0a.28.28,0,0,0,.19-.18l.16-.47.08-.08a.28.28,0,0,0,0-.4l0,0a.32.32,0,0,0-.09-.09l-3.46-3.37-.07-.93a.61.61,0,0,0-.36-.33l-2-.31-6-9.19-.51-5.46a.2.2,0,0,0,0-.1l.91-15.62L493,610.29l6.73,4.9.59,6.4a.28.28,0,0,0,.24.25l5.25,8.17a.28.28,0,0,0,.18.12.28.28,0,0,0,.2,0,.28.28,0,0,0,.18,0l2.31-1.55h0a.28.28,0,0,0,.34-.2l0-.14a.32.32,0,0,0,0-.1v0l3.29-12.59,7.1-2.4.64.64a.28.28,0,0,0,.2.08.25.25,0,0,0,.2-.08l.1-.1a.28.28,0,0,0,.2-.07l4.89-4.33a.28.28,0,0,0,.13-.09.28.28,0,0,0,.06-.21l-.9-8.62,1.42-4.75A.28.28,0,0,0,526.44,595.36Zm-2,4.84a.28.28,0,0,0,0,.11l.89,8.5L520.65,613h0a.28.28,0,0,0-.21.08l0,0-.57-.57a.28.28,0,0,0-.29-.07l-7.41,2.5a.28.28,0,0,0-.18.19l-3.33,12.76a.28.28,0,0,0-.13,0l-2.28,1.53h0l-5.2-8.1a.28.28,0,0,0-.09-.09l-.59-6.31a.28.28,0,0,0-.11-.2l-7-5.07a.28.28,0,0,0-.27,0l-23.58,9.33-.25.84-.89,15.37a.25.25,0,0,0,.07.17l.5,5.4a.28.28,0,0,0,0,.13l6.15,9.35a.28.28,0,0,0,.19.12l1.91.29,0,0,.08.06.06.8a.28.28,0,0,0,.08.18l3.47,3.38v0l-.09.28a.5.5,0,0,0-.16.06.28.28,0,0,0-.1.14l-8.86.68a.28.28,0,0,0,0-.16l-1.43-4a.27.27,0,0,0-.3-.18l-3.56.45a.29.29,0,0,0,0-.08L463,644.53a.28.28,0,0,0-.19-.17l-12.66-3.17a.28.28,0,0,0-.18-.23l-.05-18.11a.28.28,0,0,0-.13-.23L441.28,617a.28.28,0,0,0-.39.08l-14.16,22.36v0h0a.27.27,0,0,0-.14,0l-.76.3a.28.28,0,0,0-.17.18l-3.13,10.51a.28.28,0,0,0,0,.15l2.23,8.41a.28.28,0,0,0-.09.11l-9.42-.86a.28.28,0,0,0,0-.07l-1.3-3.38a.28.28,0,0,0,.18-.08L416,653a.28.28,0,0,0,.08-.22l-.23-3a.28.28,0,0,0-.35-.25l-1.81.49,0,0,3.18-8.15a.28.28,0,0,0,0-.26l-6-8.46a.28.28,0,0,0,0-.36l6.55-15.74a.28.28,0,0,0-.22-.39l-15.72-2.11a.28.28,0,0,0-.45-.16l-17.1-10.75a.29.29,0,0,0-.23,0,.28.28,0,0,0-.17.15l-10.45,21.83a.28.28,0,0,0,0,.1l-.67,9a.28.28,0,0,0,0,.15l10,18.64h0v0l.05.09a.28.28,0,0,0-.1.2l-.16,6.59a.28.28,0,0,0,0,.07l-4.55-.43-8.71.33a.28.28,0,0,0-.11-.13.28.28,0,0,0-.17,0l-1.87-3.84-.41-.21-.17-.08-.52-.26-2,.08v-.05a.28.28,0,0,0-.29-.27h-.1l-.08,0-.08,0-.35-1a.27.27,0,0,0-.19-.16h0l0,0,0,0,1.12-1.67a.28.28,0,0,0,0-.23l-7.76-27.84a.28.28,0,0,0,.06-.4l5.37-8.79a.28.28,0,0,0,0-.08l1.38-5.62a.28.28,0,0,0,0-.18l-6.83-16.21a.28.28,0,0,0-.29-.17.28.28,0,0,0-.24.24l-3.17,21.18-.8-3h0l0-.12-3.85-14.66a.28.28,0,0,0-.17-.19h0l9.62-24,2.58-6.7.14.05.08-.42,0-.14.19,0,.35.06,0,.09,15.68-7.64a.28.28,0,0,0,.46-.13l9.2-.85a.28.28,0,0,0,.2-.12.28.28,0,0,0,0-.1L437.66,543a.28.28,0,0,0,.2-.21l.59.06.13-.06,0,.07,38.58,4.21,13.21,11.73a.28.28,0,0,0,.44-.1l18.33,3.56a.28.28,0,0,0,.22-.05.28.28,0,0,0,.11-.2l.22-2.8h0l2,2.73a.28.28,0,0,0,.07.38l-.17.6a.31.31,0,0,0,.15.33,4.05,4.05,0,0,1,.74.51,3.37,3.37,0,0,1,.3.36,2.79,2.79,0,0,0,.52.55l.27.19a2.52,2.52,0,0,1,.51.4c1.14,1.25,2.34,2.44,3.38,3.43.72.69,1.51,1.34,2.28,2,.47.39.95.77,1.4,1.17s1.1,1,1.6,1.5l.28.32a3.83,3.83,0,0,0,1,.95.3.3,0,0,1,.13.12.29.29,0,0,0,.08.09c.34,4.8.57,8.69.72,12.25,0,.59.05,1.18.08,1.77.07,1.4.15,2.84.14,4.25v.3c0,.3,0,.61,0,.91a.28.28,0,0,0,0,.16l.49.76a.28.28,0,0,0,.06.39Z"/><path class="cls-4" d="M366.26,635.35a.28.28,0,0,0-.22.28l.08,6.67a.28.28,0,0,0,0,.1l3.88,10a.28.28,0,0,0,.08.11l3,2.58a.28.28,0,0,0,.19.07h0a.28.28,0,0,0,.19-.11l1.65-2.26a.28.28,0,0,0,.05-.19l-.07-.77a.31.31,0,0,0-.34-.25.28.28,0,0,0-.25.2l0,.09-2.08-.58a.28.28,0,0,0-.12-.21l.65-2.43a.28.28,0,0,0-.09-.29l-.09,0-6.18-12.68-.19-.23A.27.27,0,0,0,366.26,635.35Zm.36,1.52,5.76,11.83-.66,2.46a2.47,2.47,0,0,1,.15.43.28.28,0,0,0,.17.13l2.58.73v.07l-1.41,1.93-2.7-2.33-3.84-9.88Z"/><path class="cls-4" d="M504.43,577.07l-.22,0,1.06-15.16-7.15,14.79,2.06,5.81,6.31.86.33-5.68-2.4-.51Zm1.8,1-.26,4.6-5.37-.73-1.86-5.26,5.79-12-.9,12.82h.14v0Z"/><path class="cls-4" d="M469.94,617.87,492,609.8l.13.15.36-.3.14,0,0-.16,22.91-19.41L502.2,616.89l-.28.09.16.52,18.59-5.88-.16-.52-17.59,5.56,13.29-26.55,4.66,21.43.27-.06h.27l1.65-34.5.13-.12-.12-.14,0-.48-.47,0-11.82-13.35-.2.18-.27.06,5.57,25.6-21.52-5.55-.14.53,21.51,5.55L492.47,609,489,595.25l.19.06L498,568.45l0,0,.37-.4-.23-.22v0l-.07,0-21.33-20.19-.19.2-.21-.17-23.36,29.05-14.45-33.8,0-.07-.13.06-.37.16,14.6,34.14,0,0-50.2-13,35.77-20.81-.27-.47-36.25,21.08-24.07-6.22-.07.26h0l-.23-.15-14.42,21.33-2.77-13.15.12-.69,0-.09-.35-.06-.19,0,0,.14-.08.42-.14-.05-2.58,6.7-9.18,23.82.34.13,3.27,14.86,0,.12h0l.15,0-.05.29.54.1,3.65-20.5L365,610l-.08,2.59-8.51,11,.43.33,8-10.43-.57,19.22h.27l-.21.17,1.57,1.88-.46,0-.22,6.55L356.82,624l-.49.24,8.92,18.22-1.63,12,.27,0-.12.24,1.79.89.52.26.17.08.41.21,4.64,2.32,0,.08.07,0,1.31.66.08,0v.27l8.65.31v0l.46-.12-2.21-8.43,2.14,2.57.42-.35L379.36,650v0h0l-8.1-9.71h.13l1.57-16.42h-.15l23-46.08.2-.06,18.89,20.14-14.37,15.76.4.37.32-.35,0,.14,25.2,3.28,6.06,10.13.29-.17-.22.33,0,0-14.73,12.47-5.72-7.72,14-14.63-.39-.38-14.17,14.8.2.19-.22.16,6,8.1L424,658.81l.51-.18-6.41-18.21h0l0-.09,15.36-13-.08-.09V627L443,612.27l11,12,.21-.19,1.93,5.16-.08,0-5.58,11.11.24.12-.06.27,10.68,2.44.14.38.45-.17,7.28,8.69.42-.35-.2-.24.24,0-2.68-24.54,2-7,.25-.84.45-1.55Zm51-8.48-4.37-20.07,5.89-11.76ZM511.1,564l11.22,12.67-5.9,11.78ZM516,589.31l-.06.12-.15-.17Zm-46.15,28,2.79-9.54.36-.14-.18-.46,0-.09-.07,0-.05-.13,18.6,2.54ZM497.59,568l-8.77,26.59-11.69-45.94Zm-21.08-19.6L491.92,609l-19.43-2.66-14.07-35.43Zm-23.66,29.76-.11-.21.1-.13.26.07.07-.26.25-.11-.11-.27,4.72-5.87,13.84,34.86-37.73-5.16,18.24-22.68Zm-29.39,15.15,27.73-14.29-17.67,22-.16,0Zm-22.16-28.8.17.29.3-.17,50.5,13L452,578l-29,15L379.4,559.21l-.4-.43Zm-38.84,15.28.11,0L356,589.58l3.92-22Zm-10.76,30.56-3.19-14.5h0l10.79-28Zm12.48,44,1.51-11.15L371,657.78Zm17,4.95-7.94-.29,5.6-8.67Zm-2.69-9.42-5.68,8.8-1.12-.56-5.67-15.5-.31.11,0-.27h0v0l.07-.5h-.05l.24-7,.37.44.19.23Zm-7.68-10.07-6-7.14.59-19.87.05-.07-.05,0,0-1.64L372,624.12,365,632.4l.41.35,6.93-8.08Zm1.49-16.33-6.77-13.59v-.23h-.12l-9.53-19.11L395.07,578Zm23.07-46.17-38.95,12.49,21.15-31.29,1.41,1.09,16.46,17.55Zm6.16,35.94,13.64-15,10.85,18.16Zm31.3,13.52-17.38-29.09-.23.14h0l.2-.19-19.31-20.59,0-.06-.16-.08-14.26-15.2,40.69,31.52-7.3,3.76.25.48,7.52-3.88,10.13,7.85,1.05,1.14h-.41Zm.57-.83.8-23.22,8.4,9.11Zm17.75,14.26,5.24-10.42,4.76,12.71Zm18,10.8-6.78-8.1,4.3-14.7Zm-2.62-24.27h0v.06l-4.63,15.85h-.06l-14.6-39-.51.19L454,623.4,434,601.64l38.15,5.22.14.35Z"/><rect class="cls-4" x="474.81" y="565.24" width="0.54" height="49.39" transform="translate(-269.47 450.8) rotate(-40.57)"/><path class="cls-4" d="M336.28,618.24a.21.21,0,0,0,0-.14l-.42-.7c0-.21,0-.42,0-.62v-.22c0-1.07,0-2.16,0-3.21,0-.44,0-.88,0-1.32,0-2.68-.1-5.6-.24-9.21a.41.41,0,0,0-.12-.28.64.64,0,0,0-.24-.24,2.53,2.53,0,0,1-.63-.63l-.21-.26c-.37-.42-.79-.82-1.19-1.2s-.68-.62-1-.92c-.55-.48-1.13-1-1.64-1.51-.74-.77-1.61-1.68-2.43-2.64a2.28,2.28,0,0,0-.45-.38l-.18-.13a1.78,1.78,0,0,1-.3-.35,2.91,2.91,0,0,0-.26-.32,2.8,2.8,0,0,0-.5-.38l.16-.48a.94.94,0,0,0,0-.3l-1.66-2.42a.21.21,0,0,0-.29-.05l-.05,0h-.06a.21.21,0,0,0-.23.19l-.23,2.05-13.62-3.12a.21.21,0,0,0-.15,0l-9.42-8.94-.05,0a.2.2,0,0,0-.14,0L271,576.25a.21.21,0,0,0-.24.18v0l-39.2,8.91a.21.21,0,0,0-.14.12l-6.91.41h-.06l-.06,0-12.21,5.47-.07,0a.21.21,0,0,0-.25.16l-.1,0a.95.95,0,0,0-.18.18l-10.08,22.89a.21.21,0,0,0,.11.28l.12.05L205,629.08a.21.21,0,0,0,.25.16l.27-.06a.21.21,0,0,0,.16-.25l-.07-.32,2.82-15.33,4.43,11.55-1.15,4.08-4.33,6.6a1,1,0,0,0,0,.27l5.15,21.15-.79,1.09a.21.21,0,0,0-.14.19l-.08.11a.21.21,0,0,0,0,.29l.19.14.27.84a.21.21,0,0,0,.26.14l.06,0a.21.21,0,0,0,.21.19h2.07l1.48,3.29a.9.9,0,0,0,.32.21l6.71,0,3.64.46a.2.2,0,0,0,.15,0,.21.21,0,0,0,.08-.14l0-.27a.21.21,0,0,0,0-.16l0,0,.27-4.66,0,0a.21.21,0,0,0,.09-.28l-.11-.21a.23.23,0,0,0,0-.1l-7-14.12.71-6.61,8.24-15.86,12.52,8.46.07,0,.07,0,11.65,2-5.27,11.56a.21.21,0,0,0,0,.17h0a.21.21,0,0,0,0,.16l4.36,6.56-2.61,6.11a.21.21,0,0,0,.11.28h0v0a.21.21,0,0,0,.25.16l1.31-.31.08,1.93-1.27,1.15h-.07l-.26.09a.21.21,0,0,0-.13.27l1,2.76,0,.12a.21.21,0,0,0,.17.23l0,0a.21.21,0,0,0,.16,0h0l7.22.9h0a3.24,3.24,0,0,1,.33-.27.21.21,0,0,0,0-.16l-1.5-6.49,2.55-7.65.38-.13h0a.21.21,0,0,0,.16,0,.21.21,0,0,0,.13-.09l.06-.09a.26.26,0,0,0,.09-.11v0l11-16.18,6,4.19-.41,13.66a.21.21,0,0,0,.06.15l0,0,0,.06a.21.21,0,0,0,.13.1l9.49,2.71,2.22,6v.11a.21.21,0,0,0,.23.19l2.72-.25.87,2.69a.21.21,0,0,0,0,.09v.28a.21.21,0,0,0,.22.2l7.11-.31a.21.21,0,0,0,.15-.07l0,0a.21.21,0,0,0,.14-.13l.13-.35.06-.06a.21.21,0,0,0,0-.3l0,0a.24.24,0,0,0-.07-.07l-2.51-2.61,0-.7a.45.45,0,0,0-.26-.26l-1.49-.28-4.3-7-.25-4.1a.15.15,0,0,0,0-.08l1.06-11.69,17.7-6.34,4.92,3.84.29,4.81a.21.21,0,0,0,.17.19l3.73,6.25a.21.21,0,0,0,.13.1.21.21,0,0,0,.15,0,.21.21,0,0,0,.14,0l1.77-1.11h0a.21.21,0,0,0,.26-.14l0-.11a.24.24,0,0,0,0-.07v0l2.77-9.36,5.38-1.62.47.5a.21.21,0,0,0,.15.07.19.19,0,0,0,.15-.06l.07-.07a.21.21,0,0,0,.15,0l3.77-3.12a.21.21,0,0,0,.1-.06.21.21,0,0,0,.05-.15l-.46-6.48,1.18-3.53A.21.21,0,0,0,336.28,618.24Zm-1.59,3.58a.21.21,0,0,0,0,.08l.46,6.39-3.64,3h0a.21.21,0,0,0-.16.06l0,0-.41-.44a.21.21,0,0,0-.21-.06l-5.61,1.69a.21.21,0,0,0-.14.14l-2.81,9.48-.09,0-1.74,1.09h0l-3.7-6.2a.21.21,0,0,0-.06-.07l-.28-4.74a.21.21,0,0,0-.08-.15l-5.09-4a.21.21,0,0,0-.2,0l-17.9,6.41-.21.63-1,11.5a.19.19,0,0,0,0,.13l.24,4.06a.21.21,0,0,0,0,.1l4.38,7.16a.21.21,0,0,0,.14.1l1.43.27,0,0,.06,0,0,.6a.21.21,0,0,0,.06.14l2.52,2.62v0l-.08.21a.38.38,0,0,0-.12,0,.21.21,0,0,0-.08.11l-6.66.29a.21.21,0,0,0,0-.12l-1-3a.21.21,0,0,0-.22-.14l-2.68.25,0-.06-2.24-6a.21.21,0,0,0-.14-.13L278,650.7a.21.21,0,0,0-.13-.18l.41-13.57a.21.21,0,0,0-.09-.18l-6.22-4.38a.21.21,0,0,0-.29.05l-11.16,16.4v0h-.12l-.58.2a.21.21,0,0,0-.13.13L257,657a.21.21,0,0,0,0,.11l1.47,6.36a.21.21,0,0,0-.07.08l-7-.88a.21.21,0,0,0,0-.05l-.89-2.57a.21.21,0,0,0,.14-.05l1.46-1.33a.21.21,0,0,0,.07-.16l-.1-2.29a.21.21,0,0,0-.26-.2l-1.37.32,0,0,2.58-6a.21.21,0,0,0,0-.2l-4.32-6.49a.21.21,0,0,0,0-.27l5.3-11.63a.21.21,0,0,0-.16-.29l-11.73-2a.21.21,0,0,0-.33-.13l-12.55-8.48a.21.21,0,0,0-.17,0,.21.21,0,0,0-.13.11L220.49,637a.21.21,0,0,0,0,.07l-.72,6.71a.21.21,0,0,0,0,.12l7,14.22h0l0,.07a.21.21,0,0,0-.08.15l-.29,4.94a.21.21,0,0,0,0,.05l-3.4-.43-6.54,0a.21.21,0,0,0-.08-.1.21.21,0,0,0-.13,0L215,659.9l-.3-.16-.12-.07-.38-.21h-1.53v0a.21.21,0,0,0-.21-.21h-.14l-.06,0-.24-.74a.2.2,0,0,0-.14-.13h0l0,0,0,0,.88-1.23a.21.21,0,0,0,0-.17l-5.13-21.05a.21.21,0,0,0,.05-.3l4.24-6.46,0-.06,1.17-4.18a.21.21,0,0,0,0-.13l-4.72-12.32a.21.21,0,0,0-.22-.13.21.21,0,0,0-.19.17l-2.9,15.79L204.7,626h0l0-.09-2.52-11.08a.21.21,0,0,0-.12-.15h0l7.8-17.71,2.1-5,.1,0,.07-.31,0-.1.14,0,.26.05v.07l11.94-5.34a.21.21,0,0,0,.35-.09l6.91-.41a.21.21,0,0,0,.15-.08.21.21,0,0,0,0-.07l39.16-8.9a.21.21,0,0,0,.16-.15l.44.06.1,0,0,.06,28.81,4.1,9.61,9.11a.21.21,0,0,0,.34-.07l13.65,3.12a.21.21,0,0,0,.17,0,.21.21,0,0,0,.09-.15l.23-2.09h0l1.44,2.1a.21.21,0,0,0,0,.29l-.14.44a.23.23,0,0,0,.1.25,3,3,0,0,1,.54.4,2.52,2.52,0,0,1,.22.27,2.09,2.09,0,0,0,.38.43l.2.15a1.89,1.89,0,0,1,.37.31c.82,1,1.7,1.89,2.45,2.66.52.54,1.1,1,1.66,1.53.35.3.69.6,1,.91s.8.75,1.16,1.17l.2.24a2.87,2.87,0,0,0,.75.73.22.22,0,0,1,.09.09.22.22,0,0,0,.06.07c.14,3.6.21,6.52.23,9.19,0,.44,0,.88,0,1.33,0,1,0,2.13,0,3.19v.22c0,.23,0,.45,0,.68a.21.21,0,0,0,0,.12l.35.58a.21.21,0,0,0,0,.3Z"/><path class="cls-4" d="M215.26,644.27a.21.21,0,0,0-.17.2l-.1,5a.21.21,0,0,0,0,.07l2.66,7.58a.21.21,0,0,0,.06.08l2.18,2a.21.21,0,0,0,.14.06h0a.21.21,0,0,0,.15-.08l1.29-1.65a.21.21,0,0,0,0-.14l0-.58a.23.23,0,0,0-.25-.2.21.21,0,0,0-.19.15l0,.06-1.54-.49a.21.21,0,0,0-.08-.16l.55-1.81a.21.21,0,0,0-.06-.22l-.07,0-4.32-9.66-.14-.18A.2.2,0,0,0,215.26,644.27Zm.23,1.15,4,9-.55,1.83a1.86,1.86,0,0,1,.1.33.21.21,0,0,0,.12.1l1.92.61v.05l-1.1,1.41-2-1.81-2.63-7.5Z"/><path class="cls-4" d="M320.23,604l-.16,0,1.17-11.34-5.72,10.91,1.4,4.4,4.71.8.38-4.25-1.79-.44Zm1.32.83-.31,3.44-4-.68-1.27-4,4.63-8.82-1,9.58h.11Z"/><path class="cls-4" d="M293.38,633.72l16.76-5.51.09.12.28-.22.11,0,0-.12,17.65-14-10.71,19.74-.21.06.11.39,14.08-3.95-.11-.39-13.32,3.73L328.74,614l3,16.17.2,0,.2,0,2.08-25.81.1-.09-.09-.11,0-.36-.35,0-8.53-10.29-.16.13-.2,0L328.55,613l-16-4.69-.12.39,16,4.68-17.94,14.22-2.28-10.38.14.05,7.3-19.91,0,0,.29-.29-.17-.17v0l-.05,0-15.49-15.65-.15.14-.15-.13-18.22,21.2-10-25.68,0-.06-.1,0-.28.11,10.1,25.94,0,0-37.3-11,27.32-14.71-.19-.36-27.68,14.91-17.88-5.25-.06.2h0l-.17-.12-11.33,15.63-1.75-9.92.11-.52v-.07l-.26-.05-.14,0,0,.1L212,592l-.1,0-2.1,5-7.47,17.62.25.11,2.09,11.21,0,.09h0l.11,0,0,.21.4.08L208.4,611,215,625.25l-.12,1.94-6.65,8,.32.26,6.29-7.62-.9,14.39h.2l-.16.13,1.13,1.45-.35,0-.33,4.9-5.92-13.18-.37.17,6.23,13.87-1.51,8.94.2,0-.1.18,1.32.71.38.21.12.07.3.16,3.42,1.85,0,.06.06,0,1,.52.06,0v.2L226,663v0l.35-.08-1.45-6.37,1.54,2,.32-.25-2.08-2.66v0h0l-5.83-7.48H219l1.58-12.26h-.11l18.39-34,.15,0,13.66,15.56-11.15,11.46.29.29.25-.25,0,.11,18.8,3.08,4.29,7.74.22-.12-.17.24,0,0-11.35,9L249.7,643l10.86-10.62-.29-.29-11,10.74.14.15-.17.12,4.3,6.22,4.41,14,.39-.12L254,649.33h0l0-.07,11.83-9.36-.05-.07v-.16l7.57-10.82,8,9.25.16-.14,1.32,3.91-.06,0L278.3,650l.18.1-.05.2,7.94,2.09.1.29.34-.11,5.24,6.69.32-.25-.14-.18h.18L291,640.39l1.7-5.17.21-.63.38-1.15Zm38.45-5.1-2.78-15.14,4.7-8.67Zm-6.28-34.24,8.1,9.77-4.71,8.68Zm3.05,19.07,0,.09-.11-.13ZM293.33,633.3l2.33-7.08.27-.1-.12-.35,0-.07-.05,0,0-.1L309.61,628Zm22-36.25-7.23,19.71L300.48,582ZM300,581.84l10.06,45.78-14.49-2.47-9.67-26.9Zm-18.46,21.72-.08-.16.08-.09.19.06.06-.2.19-.07-.08-.2,3.68-4.28,9.51,26.46L267,620.28l14.22-16.54Zm-22.4,10.63,21.13-10-13.78,16-.12,0Zm-15.9-22.12.12.22.23-.12,37.52,11-.18.21-22.13,10.5L227,587.53l-.29-.33Zm-29.48,10.5.09,0-5.19,7.17,3.48-16.38ZM205,625.2l-2-10.94h0l8.78-20.72Zm8.27,33.26,1.41-8.32,3.63,11Zm12.65,4.13-5.95-.41,4.41-6.36Zm-1.79-7.13-4.47,6.45-.82-.44-3.87-11.75-.23.08,0-.2h0v0l.06-.37h0l.35-5.26.27.34.14.18Zm-5.51-7.73-4.29-5.5.93-14.88,0-.05,0,0,.08-1.23,4.56,10-5.52,6,.3.28,5.39-5.88Zm1.52-12.2-4.74-10.35V625h-.09l-6.67-14.55L238.26,602Zm18.42-34L209,609.9,225.66,587l1,.85,11.9,13.56Zm3.73,27.09,10.59-10.88,7.68,13.87Zm23.12,10.9-12.31-22.22-.18.1h0l.15-.13-14-15.9,0,0-.12-.06-10.31-11.74L258.4,614.1l-5.56,2.64.18.37,5.73-2.72,7.4,6.13.76.88-.3,0Zm.45-.6L267,621.51l6.07,7ZM278.78,650l4.18-7.68,3.25,9.64ZM292,658.54l-4.88-6.23,3.58-10.91Zm-1.37-18.25h0v0l-3.86,11.77h0l-10-29.59-.39.13,5,14.83-14.51-16.8,28.46,4.85.1.27Z"/><rect class="cls-4" x="297.72" y="594.39" width="0.41" height="37.03" transform="translate(-317.75 320.75) rotate(-38.69)"/><path class="cls-4" d="M188.42,630.49a.15.15,0,0,0,0-.11l-.31-.52c0-.15,0-.31,0-.46v-.16c0-.79,0-1.6,0-2.38,0-.33,0-.65,0-1,0-2-.06-4.16-.16-6.83a.3.3,0,0,0-.09-.21.48.48,0,0,0-.18-.18,1.88,1.88,0,0,1-.47-.47l-.16-.19c-.28-.32-.59-.61-.88-.89l-.76-.69c-.41-.36-.83-.73-1.21-1.12-.55-.57-1.19-1.25-1.8-2a1.69,1.69,0,0,0-.33-.28l-.14-.1a1.32,1.32,0,0,1-.22-.26,2.16,2.16,0,0,0-.19-.24,2.07,2.07,0,0,0-.37-.28l.12-.35a.7.7,0,0,0,0-.23L180,609.8a.16.16,0,0,0-.22,0l0,0h0a.16.16,0,0,0-.17.14l-.17,1.52-10.1-2.34a.16.16,0,0,0-.11,0l-7-6.65,0,0a.15.15,0,0,0-.1,0l-22-3.18a.16.16,0,0,0-.18.13v0l-29.1,6.54a.16.16,0,0,0-.11.09l-5.13.29h-.09l-9.07,4h-.05a.16.16,0,0,0-.18.12l-.07,0a.7.7,0,0,0-.13.13l-7.52,17a.16.16,0,0,0,.08.21l.09,0L91,638.31a.16.16,0,0,0,.19.12l.2,0a.16.16,0,0,0,.12-.19l-.05-.24,2.12-11.37,3.26,8.58-.86,3-3.22,4.89a.71.71,0,0,0,0,.2L96.49,659l-.59.81a.16.16,0,0,0-.1.14l-.06.08a.16.16,0,0,0,0,.22l.14.1.2.62a.16.16,0,0,0,.2.1l0,0a.16.16,0,0,0,.16.14H98l1.1,2.45a.67.67,0,0,0,.24.15h5l2.7.35a.15.15,0,0,0,.12,0,.16.16,0,0,0,.06-.1l0-.2a.15.15,0,0,0,0-.12l0,0,.21-3.46h0a.16.16,0,0,0,.07-.21l-.08-.16a.17.17,0,0,0,0-.07l-5.17-10.49.54-4.91,6.14-11.75,9.27,6.3,0,0,.05,0,8.64,1.47L123,649a.16.16,0,0,0,0,.13h0a.16.16,0,0,0,0,.12l3.23,4.88-1.95,4.53a.16.16,0,0,0,.08.2h0v0a.15.15,0,0,0,.19.12l1-.23.06,1.44-.94.85h0l-.19.07a.16.16,0,0,0-.1.2l.71,2.05v.09a.16.16,0,0,0,.12.17l0,0a.16.16,0,0,0,.12,0h0l5.36.68h0a2.4,2.4,0,0,1,.24-.2.16.16,0,0,0,0-.12l-1.1-4.82,1.91-5.67.28-.1h0a.16.16,0,0,0,.12,0,.16.16,0,0,0,.1-.07l0-.07a.2.2,0,0,0,.07-.08v0l8.19-12,4.41,3.12-.33,10.13a.15.15,0,0,0,0,.11l0,0,0,0a.16.16,0,0,0,.09.07l7,2,1.64,4.43h0v.07a.16.16,0,0,0,.17.14l2-.18.64,2a.16.16,0,0,0,0,.07v.2a.16.16,0,0,0,.16.15l5.27-.22a.15.15,0,0,0,.11-.05l0,0a.16.16,0,0,0,.11-.1l.1-.26,0,0a.16.16,0,0,0,0-.22l0,0,0-.05-1.86-1.94,0-.52a.34.34,0,0,0-.19-.19l-1.1-.21-3.18-5.23-.18-3a.11.11,0,0,0,0-.06l.81-8.67,13.14-4.67,3.65,2.86.21,3.57a.16.16,0,0,0,.13.14l2.76,4.65a.16.16,0,0,0,.1.07.15.15,0,0,0,.11,0,.16.16,0,0,0,.1,0l1.32-.82h0a.16.16,0,0,0,.19-.1l0-.08,0-.05v0l2.07-6.94,4-1.19.35.37a.15.15,0,0,0,.11,0,.14.14,0,0,0,.11,0l.06-.05a.16.16,0,0,0,.11,0l2.8-2.31.07,0a.16.16,0,0,0,0-.11l-.33-4.81.88-2.61A.16.16,0,0,0,188.42,630.49Zm-1.18,2.65a.15.15,0,0,0,0,.06l.33,4.74-2.7,2.23h0a.15.15,0,0,0-.12,0l0,0-.3-.33a.16.16,0,0,0-.16,0l-4.17,1.25a.16.16,0,0,0-.1.1l-2.1,7-.07,0-1.3.81h0l-2.73-4.6,0-.05-.2-3.52a.16.16,0,0,0-.06-.11l-3.77-3a.15.15,0,0,0-.15,0l-13.29,4.73-.15.46-.8,8.53a.14.14,0,0,0,0,.09l.17,3a.15.15,0,0,0,0,.07l3.23,5.32a.16.16,0,0,0,.1.07l1.06.2v0l0,0,0,.45a.16.16,0,0,0,0,.1l1.86,1.95h0l-.06.16a.28.28,0,0,0-.09,0,.16.16,0,0,0-.06.08l-4.94.2a.16.16,0,0,0,0-.09L156,661a.15.15,0,0,0-.16-.11l-2,.18,0,0-1.65-4.46a.16.16,0,0,0-.1-.1l-7-2a.16.16,0,0,0-.1-.13l.32-10.07a.16.16,0,0,0-.07-.13l-4.61-3.26a.16.16,0,0,0-.22,0l-8.31,12.15H132l-.43.15a.16.16,0,0,0-.1.1l-1.94,5.78a.16.16,0,0,0,0,.08l1.08,4.72a.16.16,0,0,0-.05.06l-5.22-.66v0l-.66-1.91a.16.16,0,0,0,.1,0l1.08-1a.16.16,0,0,0,.05-.12l-.07-1.7a.16.16,0,0,0-.19-.15l-1,.24,0,0,1.92-4.47a.16.16,0,0,0,0-.15l-3.19-4.82a.16.16,0,0,0,0-.2l4-8.62a.16.16,0,0,0-.12-.22l-8.7-1.48a.16.16,0,0,0-.24-.1l-9.3-6.31a.16.16,0,0,0-.13,0,.16.16,0,0,0-.1.08l-6.24,11.93a.15.15,0,0,0,0,.06l-.55,5a.16.16,0,0,0,0,.09l5.2,10.56h0l0,.05a.16.16,0,0,0-.06.11l-.22,3.66a.16.16,0,0,0,0,0l-2.52-.33H99.52a.16.16,0,0,0-.06-.08.16.16,0,0,0-.09,0l-1-2.17-.22-.12-.09,0-.29-.16H96.67v0a.16.16,0,0,0-.16-.16h-.15l-.17-.55a.15.15,0,0,0-.1-.1h0v0l0,0,.66-.91a.16.16,0,0,0,0-.13L93,643.35a.16.16,0,0,0,0-.22l3.16-4.78,0,0,.88-3.1a.16.16,0,0,0,0-.1L93.65,626a.15.15,0,0,0-.16-.1.16.16,0,0,0-.14.13l-2.18,11.71-.38-1.7h0v-.07l-1.85-8.22a.16.16,0,0,0-.09-.11h0l5.82-13.13,1.57-3.67.08,0,0-.23,0-.08.1,0,.19,0v0l8.87-3.94a.16.16,0,0,0,.26-.06l5.13-.29a.16.16,0,0,0,.12-.06l0-.05,29.07-6.54a.16.16,0,0,0,.12-.11l.33,0,.07,0,0,0L162,602.71l7.11,6.78a.16.16,0,0,0,.25,0l10.12,2.34a.15.15,0,0,0,.12,0,.16.16,0,0,0,.06-.11l.18-1.55h0l1.06,1.56a.16.16,0,0,0,0,.21l-.11.33a.17.17,0,0,0,.08.19,2.25,2.25,0,0,1,.4.3,1.87,1.87,0,0,1,.16.2,1.55,1.55,0,0,0,.28.32l.15.11a1.4,1.4,0,0,1,.27.23c.61.72,1.26,1.4,1.81,2,.39.4.81.78,1.23,1.14l.76.68c.3.28.59.56.86.87l.15.18a2.13,2.13,0,0,0,.56.55.17.17,0,0,1,.07.07l0,.05c.1,2.67.15,4.84.16,6.82,0,.33,0,.66,0,1,0,.78,0,1.58,0,2.37v.17c0,.17,0,.34,0,.51a.15.15,0,0,0,0,.09l.26.43a.16.16,0,0,0,0,.22Z"/><path class="cls-4" d="M98.59,649.59a.16.16,0,0,0-.13.15l-.08,3.71a.16.16,0,0,0,0,.05l2,5.63a.16.16,0,0,0,0,.06l1.61,1.49a.16.16,0,0,0,.11,0h0a.16.16,0,0,0,.11-.06l1-1.22a.16.16,0,0,0,0-.1l0-.43a.17.17,0,0,0-.18-.15.16.16,0,0,0-.14.11l0,0-1.14-.36a.16.16,0,0,0,0-.07l0-.05.41-1.34a.16.16,0,0,0,0-.16l0,0-3.19-7.17-.1-.13A.15.15,0,0,0,98.59,649.59Zm.17.85,3,6.69-.41,1.36a.16.16,0,0,0,0,.12l0,.05a.16.16,0,0,0,0,.07.16.16,0,0,0,.09.08l1.42.45v0l-.82,1L100.63,659l-1.94-5.57Z"/><path class="cls-4" d="M176.54,619.89h-.12l.89-8.41L173,619.55l1,3.27,3.49.6.29-3.15-1.33-.33Zm1,.62-.24,2.55-3-.51-.93-3,3.45-6.54-.75,7.11h.08Z"/><path class="cls-4" d="M156.57,641.9,169,637.84l.07.09.2-.16h.08l0-.09,13.12-10.34-8,14.63-.16,0,.08.29,10.45-2.9-.08-.29-9.89,2.75,7.91-14.5,2.17,12,.15,0h.15l1.59-19.15.08-.06-.06-.08,0-.27-.26,0-6.31-7.65-.12.1-.15,0,2.6,14.34-11.85-3.51-.09.29,11.85,3.5L169.27,637.4l-1.67-7.7.1,0L173.15,615l0,0,.22-.21-.12-.13v0h0L161.77,603l-.11.11-.11-.1L148,618.69l-7.37-19.07,0,0-.07,0-.21.08,7.45,19.26,0,0-27.66-8.19,20.29-10.87-.14-.27-20.56,11-13.26-3.93,0,.14h0l-.12-.09-8.43,11.58L96.54,611l.08-.38v0l-.19,0-.1,0,0,.08,0,.23-.08,0-1.57,3.67-5.57,13.06.19.08,1.53,8.32V636h0l.08,0,0,.16.3.06,2.43-11.33,4.83,10.61-.09,1.44-4.94,6,.23.19,4.68-5.64-.69,10.68h.15l-.12.09.83,1.07-.26,0-.25,3.64-4.37-9.79-.28.12,4.6,10.3-1.14,6.63.15,0-.07.13,1,.53.29.16.09,0,.22.12,2.54,1.38v0h0l.72.39,0,0v.15l4.8.34v0l.26-.06-1.06-4.73,1.14,1.47.24-.19-1.54-2v0h0l-4.31-5.56h.07l1.19-9.1h-.08l13.7-25.17.11,0,10.11,11.57-8.29,8.48.22.21.18-.19v.08l13.94,2.32,3.17,5.75.16-.09-.13.18h0l-8.43,6.64-3-4.4,8.08-7.86-.21-.22-8.17,7.95.11.11-.12.09,3.18,4.62,3.25,10.38.29-.09-3.21-10.25h0l0-.05,8.79-6.93,0-.05v-.12l5.63-8,5.91,6.87.12-.1,1,2.91,0,0L145.35,654l.13.07,0,.15,5.89,1.57.07.22.25-.08,3.88,5,.24-.19-.11-.14h.14l-1-13.7,1.27-3.84.15-.46.28-.85Zm28.54-3.72-2-11.24,3.5-6.42Zm-4.6-25.42,6,7.26L183,626.47Zm2.23,14.15,0,.07-.08-.1Zm-26.2,14.67,1.74-5.25.2-.07-.09-.26,0,0h0l0-.08,10.29,1.78Zm16.38-26.86-5.4,14.61-5.6-25.77Zm-11.34-11.31,7.38,34-10.75-1.86-7.13-20Zm-13.73,16.08-.06-.12.06-.07.14,0,0-.15.14-.05-.06-.15,2.74-3.17,7,19.65L137,631.88l10.58-12.25Zm-16.64,7.85L146.9,620l-10.25,11.87-.09,0Zm-11.76-16.44.09.17.17-.09,27.82,8.24-.14.16L131,627.14l-23.57-19.62-.22-.25Zm-21.89,7.74h.06l-3.87,5.31,2.61-12.15ZM91,635.43,89.5,627.3h0L96,611.95Zm6.08,24.69,1.06-6.17,2.68,8.2Zm9.38,3.08-4.41-.32,3.28-4.71Zm-1.31-5.29-3.33,4.78-.61-.33-2.85-8.73-.17.06,0-.15h0l0-.27h0l.27-3.9.2.25.1.13Zm-4.07-5.75-3.17-4.09.71-11,0,0,0,0,.06-.91,3.37,7.39-4.11,4.46.22.21,4-4.36Zm1.15-9.05-3.5-7.69v-.13h-.07l-4.92-10.81,22-6.22Zm13.73-25.21L94,624.08l12.37-17,.76.64L116,617.82Zm2.72,20.1,7.88-8.05,5.68,10.31Zm17.14,8.13-9.09-16.51-.13.07h0l.11-.1-10.33-11.82,0,0-.09,0L108.64,609l22,18.32-4.13,1.95.13.27,4.26-2,5.48,4.56.56.65-.23,0Zm.34-.45.9-12.89,4.49,5.23Zm9.59,8.27,3.11-5.69,2.4,7.16Zm9.77,6.35-3.61-4.63,2.68-8.09Zm-1-13.54h0v0l-2.89,8.72h0l-7.35-22-.29.1,3.69,11-10.73-12.49,21.1,3.65.07.2Z"/><rect class="cls-4" x="159.82" y="612.73" width="0.3" height="27.47" transform="translate(-355.59 236.28) rotate(-38.56)"/><polygon class="cls-4" points="1493.5 666.88 1492.08 84.71 1258.54 122.1 1253.67 436.31 1174.32 607.55 1128.71 625.09 1090.79 539.27 1090.79 329.86 1065.17 314.24 1023.96 341.27 1023.96 555.32 979.45 605.57 827.13 640.9 337.3 662.45 91.5 662.45 91.5 928.62 1491.5 928.62 1491.5 666.88 1493.5 666.88"/><rect class="cls-4" x="0.06" y="662.38" width="355.45" height="265.73"/><path class="cls-5" d="M1514.58,708.36a305.69,305.69,0,0,1-115.08-.51l-94.33-18.47A679.85,679.85,0,0,0,1063,685.82l-74.84,12.4a232.28,232.28,0,0,1-89.92-2.75l-40.91-9.35a232.73,232.73,0,0,0-110.94,1.71L677.84,705.7l-14.26,2.66a305.69,305.69,0,0,1-115.08-.51l-94.33-18.47A679.85,679.85,0,0,0,212,685.82l-74.84,12.4a232.28,232.28,0,0,1-89.92-2.75L6.34,686.12a232.73,232.73,0,0,0-110.94,1.71l-68.56,17.87v80.69h1702V705.7Z"/><path class="cls-6" d="M1373.17,732.69,1332,718.87a259.54,259.54,0,0,0-159.32-2.19L1103,738a259.2,259.2,0,0,1-135.56,4.57l-59.78-14a259,259,0,0,0-127.48,2.24L677.84,750.58c-51.57,12.62-105.05-.91-155.67-17.89L481,718.87a259.54,259.54,0,0,0-159.32-2.19L252,738a259.2,259.2,0,0,1-135.56,4.57l-59.78-14a259,259,0,0,0-127.48,2.24l-102.38,27.8v41.52h1702V739.33A278.83,278.83,0,0,1,1373.17,732.69Z"/></g></g></svg>