<svg xmlns="http://www.w3.org/2000/svg" viewBox="0 0 100.18 54.36"><defs><style>.cls-1{fill:#222e65;}.cls-2{fill:none;}.cls-3{fill:#15c0dc;}</style></defs><title>Asset 2</title><g id="Layer_2" data-name="Layer 2"><g id="Layer_1-2" data-name="Layer 1"><path class="cls-1" d="M95.21,0H5A5,5,0,0,0,0,5V49.4a5,5,0,0,0,5,5H95.21a5,5,0,0,0,5-5V5A5,5,0,0,0,95.21,0Zm.73,47.31a2.82,2.82,0,0,1-2.82,2.82H7.06a2.82,2.82,0,0,1-2.82-2.82V7.06A2.82,2.82,0,0,1,7.06,4.24H93.12a2.82,2.82,0,0,1,2.82,2.82Z"/><rect class="cls-2" x="4.24" y="4.24" width="91.7" height="45.88" rx="2.82" ry="2.82"/><path class="cls-3" d="M64.69,20.18a2.11,2.11,0,0,0-2.17,1.62,17.41,17.41,0,0,0-.53,5,17.61,17.61,0,0,0,.53,4.93,2.13,2.13,0,0,0,2.17,1.71,2.1,2.1,0,0,0,2.15-1.71,18.22,18.22,0,0,0,.51-4.93,18,18,0,0,0-.51-5A2.08,2.08,0,0,0,64.69,20.18Z"/><path class="cls-3" d="M35.62,28.52v5a3.23,3.23,0,0,0,1.47-.46,2.39,2.39,0,0,0,.8-2.05,2.19,2.19,0,0,0-.75-1.75A5.44,5.44,0,0,0,35.62,28.52Z"/><path class="cls-3" d="M32.17,22.25A2.06,2.06,0,0,0,33,24a4.6,4.6,0,0,0,1.39.64V20.09a2.27,2.27,0,0,0-1.66.6A2.19,2.19,0,0,0,32.17,22.25Z"/><path class="cls-3" d="M82.59,8.8H17a10.29,10.29,0,0,1-7.8,9.42V37.06A10.29,10.29,0,0,1,17,45.72H82.66a10.3,10.3,0,0,1,8.29-8.78V18.36A10.29,10.29,0,0,1,82.59,8.8ZM39.08,35.38a7.58,7.58,0,0,1-3.46,1.06V39H34.37V36.46a8.79,8.79,0,0,1-3.79-1.11q-2.21-1.48-2.17-5.05h3.48a6.31,6.31,0,0,0,.5,2.18,2.65,2.65,0,0,0,2,1.12V28.09l-1-.31a6.68,6.68,0,0,1-3.48-2,4.88,4.88,0,0,1-1-3.11,5.81,5.81,0,0,1,.39-2.18,5,5,0,0,1,1.1-1.69,4.93,4.93,0,0,1,2-1.26,9.37,9.37,0,0,1,2-.32V15.5h1.25v1.74a6.42,6.42,0,0,1,3.29,1,5.07,5.07,0,0,1,2.25,4.47H37.76a4.67,4.67,0,0,0-.38-1.68,2,2,0,0,0-1.76-1V25a16.12,16.12,0,0,1,4.11,1.87,4.56,4.56,0,0,1,1.73,3.82A5.13,5.13,0,0,1,39.08,35.38ZM52.91,36H49.14V23.08h-4.4v-2.5a16.2,16.2,0,0,0,2.43-.23,3.43,3.43,0,0,0,1.8-1A3.23,3.23,0,0,0,49.7,18a3.05,3.05,0,0,0,.14-.75h3.07Zm16.79-2q-1.44,2.5-5,2.5t-5-2.5a14.47,14.47,0,0,1-1.44-7.13,14.55,14.55,0,0,1,1.44-7.14q1.44-2.51,5-2.51t5,2.51a14.54,14.54,0,0,1,1.44,7.14A14.46,14.46,0,0,1,69.7,33.94Z"/></g></g></svg>