<svg xmlns="http://www.w3.org/2000/svg" viewBox="0 0 107.91 81.75"><defs><style>.cls-1,.cls-4{fill:#222e65;}.cls-2,.cls-5{fill:#f5f5f5;}.cls-3{fill:#15c0dc;}.cls-4,.cls-5{stroke:#f5f5f5;stroke-miterlimit:10;stroke-width:7px;}</style></defs><title>login key blue fill thin</title><g id="Layer_2" data-name="Layer 2"><g id="Layer_1-2" data-name="Layer 1"><circle class="cls-1" cx="67.04" cy="40.88" r="40.88"/><circle class="cls-2" cx="67.04" cy="40.88" r="36.37"/><rect class="cls-2" x="5.76" y="12.53" width="29.44" height="29.62" transform="translate(16.41 -6.58) rotate(30)"/><rect class="cls-2" x="6.32" y="38.27" width="30.32" height="30.86" transform="translate(50.86 3.88) rotate(52.33)"/><circle class="cls-3" cx="67.04" cy="40.88" r="30.31"/><circle class="cls-1" cx="35.76" cy="18.13" r="2.19" transform="translate(-2.3 5.53) rotate(-8.57)"/><circle class="cls-1" cx="35.31" cy="62.85" r="2.19" transform="translate(-8.97 5.97) rotate(-8.57)"/><path class="cls-4" d="M74.9,38.38H43.07a9.14,9.14,0,1,0,0,4.18H56.93v8a2.09,2.09,0,1,0,4.19,0v-8h4.39v4.07a2.09,2.09,0,1,0,4.19,0V42.57h5.2a2.1,2.1,0,0,0,0-4.19Z"/><ellipse class="cls-5" cx="34.19" cy="41.54" rx="5.69" ry="5.63"/><path class="cls-1" d="M74.9,38.38H43.07a9.14,9.14,0,1,0,0,4.18H56.93v8a2.09,2.09,0,1,0,4.19,0v-8h4.39v4.07a2.09,2.09,0,1,0,4.19,0V42.57h5.2a2.1,2.1,0,0,0,0-4.19Z"/><ellipse class="cls-2" cx="34.19" cy="40.54" rx="5.69" ry="5.63"/></g></g></svg>