<svg xmlns="http://www.w3.org/2000/svg" viewBox="0 0 82.87 81.75"><defs><style>.cls-1{fill:#15c0dc;}.cls-2{fill:#222e65;}</style></defs><title>log in key</title><g id="Layer_2" data-name="Layer 2"><g id="Layer_1-2" data-name="Layer 1"><path class="cls-1" d="M42,10.57A30.31,30.31,0,0,0,14.14,28.92a12.59,12.59,0,0,1,6.31,6h29.4a5.59,5.59,0,0,1,0,11.19h-1.7v.57a5.59,5.59,0,0,1-8.63,4.7,5.6,5.6,0,0,1-11.14-.76V46.07H20.53a12.53,12.53,0,0,1-6.62,6.2A30.31,30.31,0,1,0,42,10.57Z"/><path class="cls-2" d="M49.85,38.38H18a9.14,9.14,0,1,0,0,4.18H31.89v8a2.09,2.09,0,1,0,4.19,0v-8h4.39v4.07a2.09,2.09,0,1,0,4.19,0V42.57h5.2a2.1,2.1,0,0,0,0-4.19ZM9.15,46.18a5.63,5.63,0,1,1,5.69-5.63A5.66,5.66,0,0,1,9.15,46.18Z"/><path class="cls-2" d="M42.46,0A40.82,40.82,0,0,0,8.34,17.69l0,0a2.23,2.23,0,0,0,3.86,2.23l0,0A36.36,36.36,0,1,1,11.73,61h0a2.23,2.23,0,1,0-3.53,2.73l0,0A40.87,40.87,0,1,0,42.46,0Z"/></g></g></svg>