<svg width="104" height="57" viewBox="0 0 104 57" fill="none" xmlns="http://www.w3.org/2000/svg" xmlns:xlink="http://www.w3.org/1999/xlink">
<rect width="104" height="57" fill="#E5E5E5"/>
<g clip-path="url(#clip0)">
<rect width="1200" height="789" transform="translate(-865 -414)" fill="black"/>
<mask id="mask0" mask-type="alpha" maskUnits="userSpaceOnUse" x="-865" y="-382" width="1200" height="768">
<rect x="-865" y="-382" width="1200" height="768" fill="white"/>
</mask>
<g mask="url(#mask0)">
<rect x="-954" y="-586" width="1680" height="1050" fill="url(#pattern0)"/>
<rect x="-738" y="-96" width="953" height="243" fill="#F1F1F1"/>
</g>
<path fill-rule="evenodd" clip-rule="evenodd" d="M5.18182 0H98.6722C100.046 0 101.365 0.54594 102.336 1.51772C103.308 2.4895 103.854 3.80751 103.854 5.18182V51.1964C103.854 52.5707 103.308 53.8887 102.336 54.8605C101.365 55.8322 100.046 56.3782 98.6722 56.3782H5.18182C2.31998 56.3782 0 54.0582 0 51.1964V5.18182C0 2.31998 2.31998 0 5.18182 0ZM98.5727 51.0969C99.1208 50.5488 99.4287 49.8055 99.4287 49.0304V7.31673C99.4287 5.70265 98.1203 4.39418 96.5062 4.39418H7.31673C5.70265 4.39418 4.39418 5.70265 4.39418 7.31673V49.0304C4.39418 50.6444 5.70265 51.9529 7.31673 51.9529H96.5062C97.2813 51.9529 98.0247 51.645 98.5727 51.0969Z" fill="#222E65"/>
<path d="M67.0424 20.9138C65.9851 20.8552 65.0377 21.5624 64.7935 22.5927C64.3606 24.2843 64.1756 26.0298 64.2442 27.7746C64.1854 29.495 64.3703 31.2152 64.7935 32.8838C65.0064 33.9465 65.9593 34.6975 67.0424 34.656C68.1221 34.7004 69.0708 33.9458 69.2706 32.8838C69.6786 31.2128 69.8565 29.4938 69.7991 27.7746C69.8661 26.0311 69.6882 24.2868 69.2706 22.5927C69.0389 21.5631 68.0959 20.8526 67.0424 20.9138Z" fill="#15C0DC"/>
<path d="M36.9153 29.5571V34.7389C37.4541 34.7052 37.9768 34.5416 38.4387 34.2622C39.0441 33.7309 39.3533 32.9385 39.2678 32.1376C39.2988 31.4462 39.0126 30.7784 38.4906 30.324C38.0086 29.9878 37.4771 29.7291 36.9153 29.5571V29.5571Z" fill="#15C0DC"/>
<path d="M33.3398 23.0591C33.3067 23.7692 33.6292 24.4491 34.2 24.8727C34.6398 25.1727 35.1267 25.3969 35.6405 25.536V20.8206C35.0067 20.7873 34.3863 21.0115 33.9202 21.4424C33.5224 21.8844 33.314 22.465 33.3398 23.0591Z" fill="#15C0DC"/>
<path fill-rule="evenodd" clip-rule="evenodd" d="M17.6182 9.12H85.5933C85.8558 14.0234 89.4327 18.1137 94.2573 19.0276V38.2833C89.7294 39.1436 86.265 42.8128 85.6658 47.3825H17.6182C17.0408 43.0062 13.8269 39.4379 9.53455 38.4076V18.8825C14.0804 17.7564 17.3596 13.7962 17.6182 9.12ZM36.9153 37.7651C38.1817 37.6938 39.412 37.3169 40.5011 36.6665C42.1544 35.6231 43.1017 33.7565 42.9676 31.806C43.0482 30.2735 42.3797 28.7974 41.1747 27.8471C39.8529 27.0044 38.419 26.352 36.9153 25.9091V20.7584C37.6661 20.7479 38.3639 21.1444 38.7393 21.7947C38.9774 22.3456 39.1109 22.9361 39.1331 23.5358H42.6878C42.7799 21.6889 41.8943 19.9295 40.356 18.9033C39.3348 18.2542 38.156 17.8959 36.9464 17.8669V16.0636H35.6509V17.8462C34.95 17.8815 34.2551 17.9927 33.5782 18.1778C32.7916 18.4386 32.0802 18.8867 31.5055 19.4836C31.0105 19.984 30.6226 20.5799 30.3655 21.2351C30.0871 21.9553 29.9499 22.7223 29.9613 23.4944C29.9262 24.6559 30.2922 25.7941 30.9976 26.7174C31.9589 27.7617 33.2179 28.4853 34.6042 28.7902L35.6405 29.1115V34.8218C34.8094 34.7692 34.047 34.3423 33.5678 33.6611C33.2619 32.9449 33.0865 32.1798 33.0496 31.4018H29.4431C29.4155 33.8684 30.1651 35.6129 31.692 36.6354C32.8971 37.3119 34.2402 37.7052 35.6198 37.7858V40.4182H36.9153V37.7651ZM54.834 37.3091H50.9269V23.9193H46.3669V21.3284C47.2112 21.3123 48.053 21.2327 48.8853 21.09C49.5986 20.9437 50.2497 20.582 50.7507 20.0536C51.1117 19.6548 51.3712 19.1749 51.5073 18.6545C51.588 18.4025 51.6367 18.1414 51.6524 17.8773H54.834V37.3091ZM67.0527 37.8273C69.5124 37.8273 71.2396 36.9636 72.2345 35.2364V35.1742C73.3431 32.8972 73.8566 30.3763 73.7269 27.8471C73.8653 25.2939 73.3518 22.7474 72.2345 20.4474C71.2396 18.7133 69.5124 17.8462 67.0527 17.8462C64.5931 17.8462 62.8658 18.7133 61.8709 20.4474C60.7541 22.7476 60.2406 25.2939 60.3785 27.8471C60.2387 30.3971 60.7524 32.9405 61.8709 35.2364C62.8658 36.9636 64.5931 37.8273 67.0527 37.8273Z" fill="#15C0DC"/>
<path fill-rule="evenodd" clip-rule="evenodd" d="M17.6183 9.12H85.5934C85.8559 14.0234 89.4328 18.1137 94.2574 19.0276V38.2833C89.7295 39.1436 86.2651 42.8128 85.6659 47.3825H17.6183C17.041 43.0062 13.827 39.4379 9.53467 38.4076V18.8825C14.0806 17.7564 17.3597 13.7962 17.6183 9.12ZM36.9154 37.7651C38.1818 37.6938 39.4122 37.3169 40.5012 36.6665C42.1545 35.6231 43.1018 33.7565 42.9678 31.806C43.0483 30.2735 42.3798 28.7974 41.1749 27.8471C39.853 27.0044 38.4191 26.352 36.9154 25.9091V20.7584C37.6662 20.7479 38.364 21.1444 38.7394 21.7947C38.9775 22.3456 39.111 22.9361 39.1332 23.5358H42.6879C42.78 21.6889 41.8944 19.9295 40.3561 18.9033C39.335 18.2542 38.1561 17.8959 36.9465 17.8669V16.0636H35.651V17.8462C34.9502 17.8815 34.2552 17.9927 33.5783 18.1778C32.7917 18.4386 32.0804 18.8867 31.5056 19.4836C31.0106 19.984 30.6227 20.5799 30.3656 21.2351C30.0872 21.9553 29.95 22.7223 29.9614 23.4944C29.9263 24.6559 30.2923 25.7941 30.9978 26.7174C31.959 27.7617 33.2181 28.4853 34.6043 28.7902L35.6407 29.1115V34.8218C34.8095 34.7692 34.0471 34.3423 33.5679 33.6611C33.2621 32.9449 33.0866 32.1798 33.0498 31.4018H29.4432C29.4156 33.8684 30.1652 35.6129 31.6921 36.6354C32.8972 37.3119 34.2404 37.7052 35.6199 37.7858V40.4182H36.9154V37.7651ZM54.8341 37.3091H50.927V23.9193H46.367V21.3284C47.2113 21.3123 48.0531 21.2327 48.8854 21.09C49.5987 20.9437 50.2498 20.582 50.7509 20.0536C51.1118 19.6548 51.3713 19.1749 51.5074 18.6545C51.5881 18.4025 51.6368 18.1414 51.6525 17.8773H54.8341V37.3091ZM67.0528 37.8273C69.5125 37.8273 71.2398 36.9636 72.2347 35.2364V35.1742C73.3433 32.8972 73.8567 30.3763 73.727 27.8471C73.8654 25.2939 73.3519 22.7474 72.2347 20.4474C71.2398 18.7133 69.5125 17.8462 67.0528 17.8462C64.5932 17.8462 62.8659 18.7133 61.871 20.4474C60.7543 22.7476 60.2407 25.2939 60.3787 27.8471C60.2388 30.3971 60.7525 32.9405 61.871 35.2364C62.8659 36.9636 64.5932 37.8273 67.0528 37.8273Z" fill="#15C0DC"/>
<rect x="23.2078" y="13.4333" width="55.1267" height="28.9231" fill="#15C0DC"/>
<path d="M48.143 31.8269H44.759C44.919 33.7149 45.503 35.1469 46.511 36.1229C47.519 37.0989 48.919 37.6509 50.711 37.7789V39.8189H52.127V37.7789C53.327 37.6989 54.311 37.4589 55.079 37.0589C55.847 36.6589 56.455 36.2029 56.903 35.6909C57.367 35.1789 57.687 34.6589 57.863 34.1309C58.039 33.5869 58.127 33.1389 58.127 32.7869C58.127 32.3869 58.095 31.9309 58.031 31.4189C57.983 30.9069 57.807 30.3949 57.503 29.8829C57.199 29.3709 56.727 28.8829 56.087 28.4189C55.447 27.9389 54.535 27.5389 53.351 27.2189C53.127 27.1549 52.911 27.0989 52.703 27.0509C52.511 27.0029 52.319 26.9549 52.127 26.9069V22.6589C52.671 22.6589 53.135 22.8829 53.519 23.3309C53.903 23.7789 54.103 24.3229 54.119 24.9629H57.527C57.479 24.1309 57.303 23.4109 56.999 22.8029C56.695 22.1949 56.303 21.6909 55.823 21.2909C55.343 20.8749 54.783 20.5549 54.143 20.3309C53.519 20.0909 52.847 19.9309 52.127 19.8509V18.0029H50.711V19.8509C49.991 19.8989 49.295 20.0429 48.623 20.2829C47.951 20.5069 47.359 20.8349 46.847 21.2669C46.335 21.6829 45.919 22.2029 45.599 22.8269C45.295 23.4509 45.143 24.1709 45.143 24.9869C45.143 25.7869 45.279 26.4589 45.551 27.0029C45.823 27.5309 46.183 27.9789 46.631 28.3469C47.095 28.6989 47.615 28.9869 48.191 29.2109C48.767 29.4189 49.351 29.6029 49.943 29.7629C50.103 29.7949 50.247 29.8349 50.375 29.8829C50.519 29.9149 50.631 29.9469 50.711 29.9789V34.9949C49.975 34.8509 49.359 34.5149 48.863 33.9869C48.367 33.4589 48.127 32.7389 48.143 31.8269ZM52.127 34.9949V30.3869C53.071 30.6429 53.735 30.9309 54.119 31.2509C54.519 31.5549 54.719 32.0189 54.719 32.6429C54.719 33.0269 54.639 33.3629 54.479 33.6509C54.319 33.9229 54.111 34.1549 53.855 34.3469C53.615 34.5389 53.335 34.6909 53.015 34.8029C52.711 34.8989 52.415 34.9629 52.127 34.9949ZM50.711 22.6589V26.5709C49.943 26.3949 49.391 26.1629 49.055 25.8749C48.719 25.5869 48.551 25.1789 48.551 24.6509C48.551 24.3149 48.607 24.0269 48.719 23.7869C48.847 23.5309 49.015 23.3229 49.223 23.1629C49.431 22.9869 49.663 22.8589 49.919 22.7789C50.175 22.6989 50.439 22.6589 50.711 22.6589Z" fill="white"/>
</g>
</svg>
