<svg xmlns="http://www.w3.org/2000/svg" viewBox="0 0 98.84 79.11"><defs><style>.cls-1,.cls-4{fill:#222e65;}.cls-2{fill:#f5f5f5;}.cls-3{fill:#15c0dc;}.cls-4{fill-rule:evenodd;}.cls-5{font-size:11px;fill:#fff;font-family:Helvetica-Bold, Helvetica;font-weight:700;}</style></defs><title>student id header avatar blue_1</title><g id="Layer_2" data-name="Layer 2"><g id="Layer_1-2" data-name="Layer 1"><rect class="cls-1" width="98.84" height="71.66" rx="6.9" ry="6.9"/><rect class="cls-2" x="4.34" y="4.28" width="90.16" height="63.02" rx="2.48" ry="2.48"/><rect class="cls-1" x="42.71" y="34.39" width="46.01" height="4.03" rx="2.02" ry="2.02"/><rect class="cls-1" x="46.8" y="57.39" width="41.92" height="4.03" rx="2.02" ry="2.02"/><rect class="cls-1" x="46.74" y="45.89" width="41.98" height="4.03" rx="2.02" ry="2.02"/><path class="cls-1" d="M31.79,49.5c2.4.85,5.67,3.43,5.67,7V75.46H13.77V56.52c0-3.59,3.27-6.17,5.67-7a13.79,13.79,0,0,0,6.18,1.57,13.79,13.79,0,0,0,6.18-1.57m-.45-3.15a10.71,10.71,0,0,1-5.72,1.78,10.71,10.71,0,0,1-5.72-1.78c-3.53.6-9.06,4.33-9.06,10.17v19.6a2.27,2.27,0,0,0,2.27,2.27h25a2.27,2.27,0,0,0,2.27-2.27V56.52c0-5.84-5.53-9.57-9.06-10.17Z"/><circle class="cls-3" cx="25.62" cy="35.62" r="4.4"/><path class="cls-3" d="M30.34,52.56c1.84.65,4.33,2.62,4.33,5.37V72.4H16.57V57.93c0-2.74,2.5-4.72,4.33-5.37a10.54,10.54,0,0,0,4.72,1.2,10.54,10.54,0,0,0,4.72-1.2"/><path class="cls-4" d="M25.62,26a9.67,9.67,0,1,0,9.67,9.67A9.67,9.67,0,0,0,25.62,26Zm0,16.38a6.72,6.72,0,1,1,6.72-6.72A6.72,6.72,0,0,1,25.63,42.34Z"/><rect class="cls-3" x="10.1" y="8.22" width="78.56" height="9.29" rx="2.02" ry="2.02"/><rect class="cls-2" x="9.08" y="61.64" width="41.32" height="5.67"/><rect class="cls-3" x="9.72" y="7.85" width="80.76" height="14.46" rx="2.17" ry="2.17"/><text class="cls-5" transform="translate(25.08 18.87)">STUDENT</text><rect class="cls-1" x="14.75" y="67.31" width="25" height="4.31"/><rect class="cls-2" x="7.38" y="71.61" width="35.19" height="7.5"/></g></g></svg>